<?xml version="1.0" encoding="iso-8859-1"?>
<!-- Uploaded to: SVG Repo, www.svgrepo.com, Generator: SVG Repo Mixer Tools -->
<svg version="1.1" id="Layer_1" xmlns="http://www.w3.org/2000/svg" xmlns:xlink="http://www.w3.org/1999/xlink" 
	 viewBox="0 0 512 512" xml:space="preserve">
<path style="fill:#FA004B;" d="M465.276,75.321c-51.82-51.82-135.837-51.82-187.658,0l-21.652,21.652l-21.652-21.652
	c-51.82-51.82-135.837-51.82-187.658,0s-51.82,135.837,0,187.658l209.31,209.31l209.31-209.31
	C517.097,211.158,517.096,127.141,465.276,75.321z"/>
<path style="fill:#FAEDD6;" d="M304.213,346.055h-96.494c-13.323,0-24.124-10.8-24.124-24.124l0,0
	c0-13.323,10.8-24.124,24.124-24.124h96.494c13.323,0,24.124,10.8,24.124,24.124l0,0
	C328.336,335.255,317.536,346.055,304.213,346.055z"/>
<g>
	<rect x="207.774" y="314.093" style="fill:#36C9A3;" width="15.715" height="15.715"/>
	<rect x="288.445" y="314.093" style="fill:#36C9A3;" width="15.715" height="15.715"/>
	<rect x="231.871" y="314.093" style="fill:#36C9A3;" width="48.193" height="15.715"/>
</g>
<path style="fill:#FFFFFF;" d="M465.036,152.748h-16.082c0-35.621-28.503-64.01-64.124-64.01V72.656
	C428.833,72.656,465.036,108.745,465.036,152.748z"/>
<g>
	<path style="fill:#232323;" d="M470.833,69.765c-54.803-54.802-143.968-54.802-198.771,0l-16.095,16.096L239.87,69.765
		c-26.547-26.547-61.842-41.166-99.385-41.166c-37.54,0-72.84,14.621-99.385,41.166c-54.801,54.801-54.801,143.968,0,198.769
		l214.867,214.867l214.867-214.867C497.381,241.989,512,206.692,512,169.15C511.999,131.606,497.379,96.311,470.833,69.765z
		 M459.719,257.422L255.966,461.177L52.212,257.422c-48.674-48.674-48.674-127.872,0-176.545
		c23.578-23.578,54.928-36.564,88.272-36.564s64.694,12.986,88.273,36.564l18.828,18.828v65.868l27.953,16.662l-64.066,16.049
		l49.112,29.613l-12.997,19.26v42.793H207.72c-17.634,0-31.98,14.347-31.98,31.98c0,17.634,14.346,31.981,31.98,31.981h39.866
		v20.942h15.715v-20.942h40.914c17.634,0,31.98-14.347,31.98-31.981c0-17.634-14.346-31.98-31.98-31.98h-40.914v-37.987
		l19.56-28.986l-30.906-18.635l64.328-16.115l-52.982-31.583v-55.892l19.875-19.875c48.672-48.672,127.873-48.674,176.545,0
		c23.579,23.579,36.564,54.928,36.564,88.273S483.298,233.844,459.719,257.422z M207.719,338.198
		c-8.969,0-16.265-7.297-16.265-16.266s7.297-16.265,16.265-16.265h96.495c8.969,0,16.265,7.297,16.265,16.265
		c0,8.969-7.297,16.266-16.265,16.266H207.719z"/>
	<rect x="247.586" y="383.239" style="fill:#232323;" width="15.715" height="32.478"/>
	<rect x="247.586" y="423.051" style="fill:#232323;" width="16.763" height="15.715"/>
</g>
</svg>