<?xml version="1.0" encoding="utf-8"?>
<!-- Generator: Adobe Illustrator 27.5.0, SVG Export Plug-In . SVG Version: 6.00 Build 0)  -->
<svg version="1.1" xmlns="http://www.w3.org/2000/svg" xmlns:xlink="http://www.w3.org/1999/xlink" x="0px" y="0px"
	 viewBox="0 0 500 500" xml:space="preserve">
	<g>
		<path style="" d="M311.74,39.886c0,0-78.574-24.379-149.972,23.108C90.371,110.48,59.596,199.849,32.762,271.534
			c-26.834,71.685-2.407,142.317,57.417,172.375c59.824,30.057,94.87-19.691,174.938-25.572
			c80.068-5.881,102.594,4.894,165.47-44.388c62.877-49.281,66.13-159.258,7.097-237.921
			C378.649,57.365,311.74,39.886,311.74,39.886z"/>
		<path style="opacity:0.8;fill:#FFFFFF;" d="M311.74,39.886c0,0-78.574-24.379-149.972,23.108
			C90.371,110.48,59.596,199.849,32.762,271.534c-26.834,71.685-2.407,142.317,57.417,172.375
			c59.824,30.057,94.87-19.691,174.938-25.572c80.068-5.881,102.594,4.894,165.47-44.388c62.877-49.281,66.13-159.258,7.097-237.921
			C378.649,57.365,311.74,39.886,311.74,39.886z"/>
	</g>
<g>
	<g>
		<line style="fill:none;stroke:#263238;stroke-miterlimit:10;" x1="464.978" y1="294.682" x2="482.359" y2="294.682"/>
		<line style="fill:none;stroke:#263238;stroke-miterlimit:10;" x1="78.299" y1="294.682" x2="456.174" y2="294.682"/>
		<line style="fill:none;stroke:#263238;stroke-miterlimit:10;" x1="20.429" y1="294.682" x2="67.464" y2="294.682"/>
	</g>
</g>
<g>
	<g>
		<g>
			<g>
				<path style="fill:#FFFFFF;stroke:#263238;stroke-linecap:round;stroke-linejoin:round;stroke-miterlimit:10;" d="
					M445.218,229.029c-0.347,0-0.7-0.052-1.049-0.161L211.85,156.384L87.272,179.54c-1.914,0.354-3.746-0.906-4.102-2.816
					c-0.355-1.91,0.906-3.746,2.816-4.102l125.435-23.315c0.565-0.103,1.144-0.07,1.691,0.101l233.152,72.744
					c1.855,0.578,2.889,2.551,2.311,4.406C448.105,228.063,446.716,229.028,445.218,229.029z"/>
			</g>
			<g>
				<path style="fill:#FFFFFF;stroke:#263238;stroke-linecap:round;stroke-linejoin:round;stroke-miterlimit:10;" d="
					M245.207,286.35c-0.814,0-1.544-0.567-1.719-1.395l-35.947-151.953c-0.99-4.671-4.633-8.392-9.282-9.48l-13.175-3.084
					c-0.946-0.222-1.533-1.167-1.312-2.113c0.22-0.947,1.169-1.532,2.113-1.312l13.175,3.084
					c5.971,1.397,10.651,6.176,11.921,12.175l35.946,151.953c0.202,0.95-0.406,1.884-1.356,2.085
					C245.451,286.337,245.328,286.35,245.207,286.35z"/>
			</g>
			<g>
				<g>
					<path style="fill:#FFFFFF;stroke:#263238;stroke-linecap:round;stroke-linejoin:round;stroke-miterlimit:10;" d="
						M430.163,261.439c-0.192,0-0.387-0.032-0.578-0.099l-205.357-67.703l-123.904,29.124c-0.93,0.264-1.906-0.279-2.171-1.214
						c-0.264-0.934,0.279-1.906,1.214-2.171l124.437-29.275c0.348-0.097,0.717-0.088,1.057,0.031l205.88,67.886
						c0.917,0.32,1.403,1.323,1.082,2.24C431.572,260.984,430.891,261.439,430.163,261.439z"/>
				</g>
				<g>
					<path style="fill:#FFFFFF;stroke:#263238;stroke-linecap:round;stroke-linejoin:round;stroke-miterlimit:10;" d="
						M414.585,305.948c-0.19,0-0.385-0.031-0.575-0.096l-179.134-65.089l-119.53,37.636c-0.931,0.268-1.906-0.277-2.171-1.214
						c-0.265-0.934,0.279-1.906,1.214-2.171l120.061-37.786c0.346-0.097,0.715-0.086,1.053,0.03l179.656,65.269
						c0.918,0.318,1.405,1.319,1.088,2.238C415.996,305.491,415.314,305.948,414.585,305.948z"/>
				</g>
				<path style="fill:#FFFFFF;stroke:#263238;stroke-linecap:round;stroke-linejoin:round;stroke-miterlimit:10;" d="
					M125.877,172.364l-3.461,0.643l32.187,140.918c0.186,0.815,0.911,1.367,1.713,1.367c0.13,0,0.262-0.014,0.393-0.045
					c0.947-0.215,1.54-1.159,1.323-2.106L125.877,172.364z"/>
				<path style="fill:#FFFFFF;stroke:#263238;stroke-linecap:round;stroke-linejoin:round;stroke-miterlimit:10;" d="
					M166.557,164.803l-3.461,0.643l30.309,135.407c0.183,0.818,0.91,1.374,1.715,1.374c0.127,0,0.257-0.014,0.386-0.042
					c0.948-0.212,1.544-1.153,1.332-2.101L166.557,164.803z"/>
				<path style="fill:#FFFFFF;stroke:#263238;stroke-linecap:round;stroke-linejoin:round;stroke-miterlimit:10;" d="
					M198.245,158.913l-3.461,0.643l29.506,131.793c0.183,0.818,0.91,1.374,1.715,1.374c0.127,0,0.257-0.014,0.386-0.042
					c0.948-0.212,1.544-1.153,1.332-2.101L198.245,158.913z"/>
				<path style="fill:#FFFFFF;stroke:#263238;stroke-linecap:round;stroke-linejoin:round;stroke-miterlimit:10;" d="
					M358.545,202.153c0,0.001-0.001,0.002-0.001,0.003L334.772,314.3c-0.234,0.942,0.342,1.896,1.285,2.13
					c0.142,0.035,0.284,0.052,0.424,0.052c0.79,0,1.508-0.535,1.706-1.336l23.729-111.941L358.545,202.153z"/>
				<path style="fill:#FFFFFF;stroke:#263238;stroke-linecap:round;stroke-linejoin:round;stroke-miterlimit:10;" d="
					M323.985,191.37c-0.122,0.189-0.211,0.404-0.254,0.639l-15.909,112.898c-0.172,0.956,0.464,1.87,1.42,2.043
					c0.105,0.018,0.21,0.027,0.314,0.027c0.835,0,1.576-0.597,1.729-1.447l15.909-112.898c0.015-0.086,0.017-0.17,0.02-0.255
					L323.985,191.37z"/>
				<path style="fill:#FFFFFF;stroke:#263238;stroke-linecap:round;stroke-linejoin:round;stroke-miterlimit:10;" d="
					M399.22,214.843c-0.002,0.007-0.006,0.013-0.009,0.02l-32.733,110.42c-0.29,0.927,0.226,1.913,1.153,2.204
					c0.175,0.055,0.352,0.08,0.526,0.08c0.749,0,1.443-0.481,1.679-1.233l32.733-110.42c0.003-0.008,0.003-0.016,0.005-0.025
					L399.22,214.843z"/>
				<path style="fill:#FFFFFF;stroke:#263238;stroke-linecap:round;stroke-linejoin:round;stroke-miterlimit:10;" d="
					M292.902,181.672c-0.076,0.169-0.134,0.349-0.154,0.544l-9.969,114.878c-0.098,0.966,0.605,1.831,1.57,1.929
					c0.062,0.006,0.122,0.009,0.182,0.009c0.891,0,1.655-0.674,1.747-1.579l9.957-114.741L292.902,181.672z"/>
				<path style="fill:#FFFFFF;stroke:#263238;stroke-linecap:round;stroke-linejoin:round;stroke-miterlimit:10;" d="
					M261.898,171.999l-3.992,116.541c-0.027,0.971,0.737,1.779,1.708,1.807c0.016,0.001,0.033,0.001,0.05,0.001
					c0.948,0,1.73-0.755,1.757-1.71l3.958-115.554L261.898,171.999z"/>
			</g>
		</g>
		<g>
			<g>
				<path style="fill:#FFFFFF;stroke:#263238;stroke-linecap:round;stroke-linejoin:round;stroke-miterlimit:10;" d="
					M398.641,337.015c-0.241,0-0.486-0.038-0.727-0.117l-151.05-49.287l-116.077,37.6c-1.229,0.401-2.553-0.276-2.954-1.508
					c-0.399-1.232,0.277-2.555,1.509-2.953l116.802-37.835c0.469-0.153,0.978-0.152,1.45,0.001l151.775,49.524
					c1.232,0.402,1.904,1.726,1.502,2.957C400.547,336.387,399.629,337.014,398.641,337.015z"/>
			</g>
			<g>
				<path style="fill:#FFFFFF;stroke:#263238;stroke-linecap:round;stroke-linejoin:round;stroke-miterlimit:10;" d="
					M320.943,369.06c-0.238,0-0.48-0.037-0.719-0.115l-164.093-52.374c-1.233-0.396-1.91-1.718-1.513-2.951
					c0.397-1.233,1.718-1.913,2.951-1.513l164.093,52.374c1.233,0.396,1.91,1.717,1.513,2.951
					C322.855,368.427,321.934,369.06,320.943,369.06z"/>
			</g>
			<g>
				<path style="fill:#FFFFFF;stroke:#263238;stroke-linecap:round;stroke-linejoin:round;stroke-miterlimit:10;" d="
					M351.65,357.057c-0.253,0-0.512-0.042-0.765-0.129l-155.875-53.752c-1.225-0.422-1.875-1.757-1.452-2.982
					c0.422-1.224,1.759-1.872,2.981-1.452l155.876,53.751c1.224,0.423,1.874,1.757,1.452,2.982
					C353.533,356.447,352.624,357.057,351.65,357.057z"/>
			</g>
			<g>
				<path style="fill:#FFFFFF;stroke:#263238;stroke-linecap:round;stroke-linejoin:round;stroke-miterlimit:10;" d="
					M377.32,345.317c-0.248,0-0.503-0.04-0.751-0.125l-151.134-51.135c-1.227-0.416-1.885-1.746-1.47-2.973
					c0.415-1.226,1.743-1.888,2.973-1.47l151.133,51.135c1.227,0.416,1.885,1.746,1.47,2.973
					C379.21,344.7,378.298,345.317,377.32,345.317z"/>
			</g>
		</g>
		<g>
			<g>
				<g>
					
						<ellipse transform="matrix(0.867 -0.4983 0.4983 0.867 -198.6233 186.8044)" style="fill:#263238;stroke:#263238;stroke-linecap:round;stroke-linejoin:round;stroke-miterlimit:10;" cx="250.623" cy="465.477" rx="12.952" ry="15.403"/>
					<path style="fill:#FFFFFF;stroke:#263238;stroke-linecap:round;stroke-linejoin:round;stroke-miterlimit:10;" d="
						M257.159,463.145c2.575,4.48,1.609,9.867-2.159,12.033c-3.767,2.165-8.909,0.289-11.484-4.191
						c-2.575-4.48-1.609-9.867,2.159-12.033C249.442,456.788,254.584,458.665,257.159,463.145z"/>
				</g>
				<path style="fill:#FFFFFF;stroke:#263238;stroke-linecap:round;stroke-linejoin:round;stroke-miterlimit:10;" d="
					M249.106,444.006l-4.187,20.537c-0.431,2.114,0.47,4.276,2.275,5.458h0c2.174,1.425,5.063,1.05,6.802-0.882l15.881-17.645
					L249.106,444.006z"/>
			</g>
			<g>
				<g>
					
						<ellipse transform="matrix(0.867 -0.4983 0.4983 0.867 -170.1805 221.2026)" style="fill:#263238;stroke:#263238;stroke-linecap:round;stroke-linejoin:round;stroke-miterlimit:10;" cx="329.281" cy="429.395" rx="12.952" ry="15.403"/>
					<path style="fill:#FFFFFF;stroke:#263238;stroke-linecap:round;stroke-linejoin:round;stroke-miterlimit:10;" d="
						M335.818,427.063c2.575,4.48,1.608,9.867-2.159,12.033c-3.767,2.165-8.909,0.289-11.484-4.191
						c-2.575-4.48-1.608-9.867,2.159-12.033S333.242,422.583,335.818,427.063z"/>
				</g>
				<path style="fill:#FFFFFF;stroke:#263238;stroke-linecap:round;stroke-linejoin:round;stroke-miterlimit:10;" d="
					M327.764,407.924l-4.187,20.537c-0.431,2.114,0.47,4.276,2.275,5.458l0,0c2.174,1.425,5.063,1.05,6.802-0.882l15.881-17.645
					L327.764,407.924z"/>
			</g>
			<g>
				<g>
					<path style="fill:#263238;stroke:#263238;stroke-linecap:round;stroke-linejoin:round;stroke-miterlimit:10;" d="
						M235.025,391.201c4.239,7.375,2.648,16.244-3.554,19.809s-14.666,0.476-18.905-6.9c-4.239-7.375-2.648-16.244,3.554-19.809
						C222.322,380.737,230.786,383.826,235.025,391.201z"/>
					
						<ellipse transform="matrix(0.867 -0.4983 0.4983 0.867 -169.227 164.4883)" style="fill:#FFFFFF;stroke:#263238;stroke-linecap:round;stroke-linejoin:round;stroke-miterlimit:10;" cx="223.511" cy="399.245" rx="7.868" ry="9.357"/>
				</g>
				<path style="fill:#FFFFFF;stroke:#263238;stroke-linecap:round;stroke-linejoin:round;stroke-miterlimit:10;" d="
					M222.279,376.185l-4.187,20.537c-0.431,2.114,0.47,4.276,2.275,5.458l0,0c2.174,1.425,5.063,1.05,6.802-0.882l15.881-17.645
					L222.279,376.185z"/>
			</g>
			<g>
				<g>
					<path style="fill:#263238;stroke:#263238;stroke-linecap:round;stroke-linejoin:round;stroke-miterlimit:10;" d="
						M152.644,422.474c4.239,7.375,2.648,16.244-3.554,19.808c-6.202,3.565-14.666,0.476-18.905-6.9
						c-4.239-7.375-2.648-16.244,3.554-19.809C139.941,412.009,148.405,415.098,152.644,422.474z"/>
					<path style="fill:#FFFFFF;stroke:#263238;stroke-linecap:round;stroke-linejoin:round;stroke-miterlimit:10;" d="
						M147.951,426.596c2.575,4.48,1.608,9.867-2.159,12.033s-8.909,0.289-11.484-4.191c-2.575-4.48-1.609-9.867,2.159-12.033
						C140.234,420.24,145.376,422.116,147.951,426.596z"/>
				</g>
				<path style="fill:#FFFFFF;stroke:#263238;stroke-linecap:round;stroke-linejoin:round;stroke-miterlimit:10;" d="
					M139.898,407.458l-4.187,20.537c-0.431,2.114,0.47,4.276,2.275,5.458l0,0c2.174,1.425,5.063,1.05,6.802-0.882l15.881-17.645
					L139.898,407.458z"/>
			</g>
			<g>
				<path style="fill:#FFFFFF;stroke:#263238;stroke-linecap:round;stroke-linejoin:round;stroke-miterlimit:10;" d="
					M281.913,455.965c-2.503,0-5.016-0.396-7.458-1.195L130.4,407.608c-3.987-1.304-7.223-4.265-8.876-8.124
					c-1.833-4.278-1.507-9.219,0.873-13.217l30.42-51.836c0.822-1.381,2.474-2.031,4.016-1.576l100.059,29.637
					c1.863,0.548,2.929,2.504,2.38,4.368c-0.548,1.863-2.497,2.93-4.368,2.38l-44.491-13.098c-0.014,0.09-0.031,0.18-0.053,0.27
					l-0.305,1.295c-0.717,3.046,0.091,6.263,2.161,8.61c1.193,1.351,2.735,2.34,4.461,2.859l139.298,41.92
					c2.347,0.708,3.992,2.743,4.189,5.186c0.197,2.441-1.098,4.713-3.3,5.788l-64.479,31.462
					C289.074,455.149,285.503,455.965,281.913,455.965z M158.061,339.785l-29.619,50.08c-1.233,2.071-1.402,4.632-0.452,6.849
					c0.857,1.999,2.533,3.532,4.598,4.208l144.056,47.162c4.198,1.375,8.691,1.063,12.654-0.872l61.901-30.204l-136.549-41.092
					c-2.982-0.898-5.648-2.606-7.71-4.943c-3.576-4.052-5.241-9.872-4.003-15.134l0.305-1.294c0.052-0.22,0.123-0.431,0.212-0.63
					L158.061,339.785z"/>
			</g>
			<path style="fill:#263238;stroke:#263238;stroke-linecap:round;stroke-linejoin:round;stroke-miterlimit:10;" d="
				M210.055,357.708l0.357-1.565l-6.959-2.229l-0.516,1.924c-0.553,2.35-0.283,5.013,0.174,7.321l9.062,3.104
				C210.138,363.922,209.344,360.732,210.055,357.708z"/>
		</g>
		<g>
			<path style="fill:#263238;stroke:#263238;stroke-linecap:round;stroke-linejoin:round;stroke-miterlimit:10;" d="M60.377,148.24
				c-3.536,0-6.627-2.764-7.146-6.599c-0.569-4.206,2.173-8.107,6.125-8.713l119.777-18.361c3.952-0.604,7.616,2.314,8.185,6.52
				c0.569,4.206-2.173,8.107-6.125,8.713L61.416,148.16C61.067,148.213,60.72,148.24,60.377,148.24z"/>
		</g>
		<g>
			<path style="fill:#FFFFFF;stroke:#263238;stroke-linecap:round;stroke-linejoin:round;stroke-miterlimit:10;" d="M92.224,180.639
				c-0.788,0-1.505-0.534-1.705-1.333l-5.813-23.255c-1.142-4.565-4.703-8.04-9.295-9.069l-18.543-4.156
				c-0.947-0.212-1.544-1.153-1.332-2.101c0.213-0.947,1.155-1.54,2.101-1.332l18.543,4.156c5.897,1.322,10.472,5.786,11.938,11.649
				l5.813,23.255c0.236,0.942-0.337,1.897-1.28,2.133C92.508,180.622,92.365,180.639,92.224,180.639z"/>
		</g>
		<g>
			<polygon style="fill:#92E3A9;stroke:#263238;stroke-linecap:round;stroke-linejoin:round;stroke-miterlimit:10;" points="
				253.607,168.698 150.748,190.996 291.01,236.312 382.36,208.259 			"/>
			
				<line style="fill:#92E3A9;stroke:#263238;stroke-linecap:round;stroke-linejoin:round;stroke-miterlimit:10;" x1="210.138" y1="177.776" x2="341.946" y2="221.521"/>
			<polygon style="fill:#92E3A9;stroke:#263238;stroke-linecap:round;stroke-linejoin:round;stroke-miterlimit:10;" points="
				291.01,236.312 285.975,365.065 155.783,320.469 150.748,190.996 			"/>
			<polygon style="fill:#92E3A9;stroke:#263238;stroke-linecap:round;stroke-linejoin:round;stroke-miterlimit:10;" points="
				382.36,208.259 373.009,331.258 285.975,365.065 291.01,236.312 			"/>
		</g>
		<g>
			<g>
				<g>
					<path style="fill:#FFFFFF;stroke:#263238;stroke-linecap:round;stroke-linejoin:round;stroke-miterlimit:10;" d="
						M297.866,378.817c-0.176,0-0.353-0.026-0.523-0.079l-169.268-52.692c-0.586-0.183-1.035-0.657-1.183-1.253L90.519,179.306
						c-0.236-0.942,0.337-1.897,1.28-2.133c0.944-0.238,1.897,0.337,2.133,1.28l36.133,144.528l167.728,52.213l100.849-40.524
						l44.948-109.826c0.369-0.899,1.389-1.331,2.295-0.961c0.899,0.368,1.329,1.395,0.962,2.294L401.614,336.69
						c-0.181,0.44-0.531,0.788-0.972,0.965l-102.12,41.035C298.311,378.775,298.089,378.817,297.866,378.817z"/>
				</g>
				<g>
					<path style="fill:#FFFFFF;stroke:#263238;stroke-linecap:round;stroke-linejoin:round;stroke-miterlimit:10;" d="
						M297.868,378.817c-0.083,0-0.168-0.006-0.254-0.018c-0.961-0.139-1.628-1.031-1.488-1.992l16.786-116.11
						c0.138-0.961,1.021-1.631,1.992-1.489c0.961,0.139,1.628,1.031,1.489,1.992l-16.786,116.11
						C299.48,378.186,298.728,378.817,297.868,378.817z"/>
				</g>
				<g>
					<path style="fill:#FFFFFF;stroke:#263238;stroke-linecap:round;stroke-linejoin:round;stroke-miterlimit:10;" d="
						M323.979,368.093c-0.122,0-0.249-0.013-0.373-0.04c-0.949-0.205-1.553-1.142-1.347-2.091l24.247-111.913
						c0.206-0.949,1.151-1.551,2.091-1.347c0.949,0.206,1.553,1.142,1.347,2.091l-24.247,111.913
						C325.518,367.531,324.79,368.093,323.979,368.093z"/>
				</g>
				<g>
					<path style="fill:#FFFFFF;stroke:#263238;stroke-linecap:round;stroke-linejoin:round;stroke-miterlimit:10;" d="
						M353.356,356.901c-0.143,0-0.289-0.017-0.433-0.054c-0.941-0.238-1.512-1.195-1.273-2.137l27.512-108.649
						c0.239-0.942,1.2-1.51,2.137-1.273c0.941,0.238,1.511,1.195,1.273,2.137L355.06,355.574
						C354.859,356.371,354.143,356.901,353.356,356.901z"/>
				</g>
				<g>
					<path style="fill:#FFFFFF;stroke:#263238;stroke-linecap:round;stroke-linejoin:round;stroke-miterlimit:10;" d="
						M379.003,345.244c-0.171,0-0.345-0.024-0.515-0.077c-0.93-0.284-1.452-1.267-1.168-2.196l33.108-108.183
						c0.285-0.93,1.272-1.451,2.196-1.167c0.93,0.285,1.452,1.268,1.168,2.197l-33.108,108.182
						C380.451,344.757,379.755,345.244,379.003,345.244z"/>
				</g>
				<g>
					<path style="fill:#FFFFFF;stroke:#263238;stroke-linecap:round;stroke-linejoin:round;stroke-miterlimit:10;" d="
						M268.489,367.626c-0.032,0-0.065-0.001-0.098-0.002c-0.97-0.054-1.712-0.884-1.659-1.854l6.529-118.44
						c0.054-0.97,0.851-1.735,1.854-1.659c0.97,0.053,1.712,0.883,1.659,1.853l-6.529,118.441
						C270.192,366.901,269.416,367.626,268.489,367.626z"/>
				</g>
				<g>
					<path style="fill:#FFFFFF;stroke:#263238;stroke-linecap:round;stroke-linejoin:round;stroke-miterlimit:10;" d="
						M241.442,360.166c-0.956,0-1.74-0.766-1.758-1.726l-2.331-124.503c-0.018-0.972,0.754-1.774,1.726-1.791
						c0.93-0.06,1.773,0.755,1.791,1.725l2.331,124.503c0.018,0.971-0.755,1.774-1.726,1.792
						C241.464,360.166,241.452,360.166,241.442,360.166z"/>
				</g>
				<g>
					<path style="fill:#FFFFFF;stroke:#263238;stroke-linecap:round;stroke-linejoin:round;stroke-miterlimit:10;" d="
						M214.396,350.839c-0.933,0-1.711-0.733-1.755-1.675l-6.063-126.834c-0.046-0.97,0.703-1.794,1.673-1.841
						c0.981-0.066,1.795,0.702,1.841,1.672l6.063,126.835c0.046,0.97-0.703,1.794-1.673,1.84
						C214.452,350.838,214.424,350.839,214.396,350.839z"/>
				</g>
				<g>
					<path style="fill:#FFFFFF;stroke:#263238;stroke-linecap:round;stroke-linejoin:round;stroke-miterlimit:10;" d="
						M190.147,343.378c-0.898,0-1.664-0.684-1.749-1.595l-12.124-130.099c-0.09-0.967,0.621-1.824,1.588-1.914
						c0.957-0.094,1.824,0.621,1.915,1.588L191.9,341.456c0.09,0.967-0.621,1.825-1.588,1.914
						C190.257,343.376,190.202,343.378,190.147,343.378z"/>
				</g>
				<g>
					<path style="fill:#FFFFFF;stroke:#263238;stroke-linecap:round;stroke-linejoin:round;stroke-miterlimit:10;" d="
						M167.764,337.316c-0.848,0-1.596-0.615-1.734-1.48L144.113,199.21c-0.154-0.96,0.499-1.861,1.458-2.015
						c0.955-0.16,1.862,0.498,2.015,1.458l21.917,136.628c0.154,0.958-0.499,1.861-1.458,2.015
						C167.951,337.31,167.857,337.316,167.764,337.316z"/>
				</g>
				<g>
					<path style="fill:#FFFFFF;stroke:#263238;stroke-linecap:round;stroke-linejoin:round;stroke-miterlimit:10;" d="
						M146.781,329.855c-0.799,0-1.522-0.547-1.711-1.359l-32.641-139.891c-0.22-0.946,0.368-1.892,1.313-2.113
						c0.949-0.216,1.892,0.367,2.113,1.313l32.641,139.891c0.22,0.946-0.367,1.892-1.313,2.113
						C147.048,329.841,146.913,329.855,146.781,329.855z"/>
				</g>
				<g>
					<path style="fill:#FFFFFF;stroke:#263238;stroke-linecap:round;stroke-linejoin:round;stroke-miterlimit:10;" d="
						M309.531,302.81c-0.053,0-0.1-0.002-0.143-0.006c-6.14-0.472-189.866-70.468-210.795-78.449
						c-0.908-0.346-1.363-1.362-1.017-2.27c0.345-0.908,1.359-1.367,2.269-1.017c56.336,21.479,203.853,77.406,209.843,78.231
						c0.009,0,0.018,0,0.027,0c5.076,0,76.462-23.355,123.284-39.086c0.923-0.309,1.918,0.187,2.227,1.107
						c0.309,0.921-0.187,1.918-1.107,2.227C414.503,270.139,316.893,302.81,309.531,302.81z"/>
				</g>
				<g>
					<path style="fill:#FFFFFF;stroke:#263238;stroke-linecap:round;stroke-linejoin:round;stroke-miterlimit:10;" d="
						M304.859,343.844c-2.372,0-136.852-46.7-194.56-66.779c-0.918-0.319-1.403-1.323-1.083-2.24
						c0.319-0.917,1.32-1.404,2.239-1.083c64.24,22.351,186.042,64.572,193.416,66.546c5.363-1.429,69.867-25.34,112.684-41.352
						c0.907-0.338,1.924,0.121,2.264,1.032c0.34,0.91-0.121,1.924-1.032,2.264C377.228,317.773,307.164,343.844,304.859,343.844z"/>
				</g>
			</g>
			<g>
				<path style="fill:#FFFFFF;stroke:#263238;stroke-linecap:round;stroke-linejoin:round;stroke-miterlimit:10;" d="
					M324.444,265.399c-0.404,0-0.808-0.07-1.194-0.209l-237.814-85.8c-1.827-0.659-2.774-2.675-2.115-4.502s2.676-2.775,4.502-2.115
					l236.721,85.405l119.659-36.036c1.859-0.562,3.822,0.494,4.382,2.354c0.561,1.86-0.493,3.822-2.353,4.383L325.459,265.25
					C325.128,265.349,324.785,265.399,324.444,265.399z"/>
			</g>
		</g>
	</g>
</g>
<g>
	<g>
		<polygon style="fill:#92E3A9;stroke:#263238;stroke-linecap:round;stroke-linejoin:round;stroke-miterlimit:10;" points="
			205.671,81.758 126.773,90.128 232.384,115.999 302.847,101.884 		"/>
		
			<line style="fill:#92E3A9;stroke:#263238;stroke-linecap:round;stroke-linejoin:round;stroke-miterlimit:10;" x1="173.641" y1="84.67" x2="272.534" y2="108.62"/>
		<polygon style="fill:#92E3A9;stroke:#263238;stroke-linecap:round;stroke-linejoin:round;stroke-miterlimit:10;" points="
			232.384,115.999 229.406,210.697 130.054,179.684 126.773,90.128 		"/>
		<polygon style="fill:#92E3A9;stroke:#263238;stroke-linecap:round;stroke-linejoin:round;stroke-miterlimit:10;" points="
			302.847,101.884 297.24,184.533 229.406,210.697 232.384,115.999 		"/>
	</g>
	<g>
		<g>
			<polygon style="fill:#92E3A9;stroke:#263238;stroke-linecap:round;stroke-linejoin:round;stroke-miterlimit:10;" points="
				319.789,146.963 214.647,172.643 284.903,196.869 391.499,172.158 			"/>
			<polygon style="fill:#FFFFFF;stroke:#263238;stroke-linecap:round;stroke-linejoin:round;stroke-miterlimit:10;" points="
				284.903,196.869 284.903,241.446 214.162,215.766 214.647,172.643 			"/>
			<polygon style="fill:#FFFFFF;stroke:#263238;stroke-linecap:round;stroke-linejoin:round;stroke-miterlimit:10;" points="
				284.903,241.446 391.983,205.591 391.499,172.158 284.903,196.869 			"/>
		</g>
		<g>
			<polygon style="fill:#92E3A9;stroke:#263238;stroke-linecap:round;stroke-linejoin:round;stroke-miterlimit:10;" points="
				319.803,118.861 211.523,142.487 283.876,167.436 393.654,138.82 			"/>
			<polygon style="fill:#92E3A9;stroke:#263238;stroke-linecap:round;stroke-linejoin:round;stroke-miterlimit:10;" points="
				283.876,167.436 283.876,213.343 211.024,186.897 211.523,142.487 			"/>
			<polygon style="fill:#92E3A9;stroke:#263238;stroke-linecap:round;stroke-linejoin:round;stroke-miterlimit:10;" points="
				283.876,213.343 394.153,179.325 393.654,138.82 283.876,167.436 			"/>
		</g>
	</g>
	<g>
		<polygon style="fill:#92E3A9;stroke:#263238;stroke-linecap:round;stroke-linejoin:round;stroke-miterlimit:10;" points="
			237.713,19.939 177.262,26.352 258.181,46.175 311.393,39.082 		"/>
		
			<line style="fill:#92E3A9;stroke:#263238;stroke-linecap:round;stroke-linejoin:round;stroke-miterlimit:10;" x1="214.232" y1="22.465" x2="290.454" y2="42.181"/>
		<polygon style="fill:#92E3A9;stroke:#263238;stroke-linecap:round;stroke-linejoin:round;stroke-miterlimit:10;" points="
			258.181,46.175 255.262,120.828 174.786,95.43 177.262,26.352 		"/>
		<polygon style="fill:#92E3A9;stroke:#263238;stroke-linecap:round;stroke-linejoin:round;stroke-miterlimit:10;" points="
			311.393,39.082 307.799,105.982 255.262,120.828 258.181,46.175 		"/>
	</g>
</g>
</svg>
