<svg version="1.2" xmlns="http://www.w3.org/2000/svg" viewBox="0 0 500 500" width="500" height="500">
	<title>382797-PC59YB-520</title>
	<defs>
		<clipPath clipPathUnits="userSpaceOnUse" id="cp1">
			<path d="m620.5-120v740.5h-740.5v-740.5z"/>
		</clipPath>
		<radialGradient id="g1" cx="0" cy="0" r="1" gradientUnits="userSpaceOnUse" gradientTransform="matrix(165.312,-1.155,5.431,35.166,250.25,459.021)">
			<stop offset="0" stop-color="#000000"/>
			<stop offset=".807" stop-color="#000000" stop-opacity="0"/>
		</radialGradient>
	</defs>
	<style>
		.s0 { opacity: .2;fill: url(#g1) } 
		.s1 { fill: #f3fcff } 
		.s2 { fill: #007fe8 } 
	</style>
	<g id="OBJECTS">
		<g id="&lt;Clip Group&gt;" clip-path="url(#cp1)">
			<g id="&lt;Group&gt;">
				<path id="&lt;Path&gt;" fill-rule="evenodd" class="s0" d="m250.3 493.2c-88.9 0-160.7-15.3-160.7-34.2 0-18.9 71.8-34.2 160.6-34.2 88.9 0 160.7 15.3 160.7 34.2 0 18.9-71.8 34.2-160.7 34.2z"/>
				<g id="&lt;Group&gt;">
					<g id="&lt;Group&gt;">
						<path id="&lt;Path&gt;" fill-rule="evenodd" class="s1" d="m453.7 143.2c50 112.3-0.6 243.9-113 293.9-112.3 49.9-243.9-0.6-293.9-113-50-112.4 0.6-244 113-293.9 112.3-50 243.9 0.6 293.9 113z"/>
					</g>
					<g id="&lt;Group&gt;">
						<g id="&lt;Group&gt;">
							<path id="&lt;Compound Path&gt;" fill-rule="evenodd" class="s2" d="m219.9 274.7c0.1-0.2 0.2-0.5 0.3-0.7-1.2-1.2-2.8-2.7-3.9-3.9-1.2-1.3-2.7-1.1-3.8 0.4-6.2 8.7-13.9 5.9-17.8-1.7-3-5.7-7.8-27.8 6.9-27.4 1 0 1.9 0.1 2.8 0.2 2.3 8.9 2.3 8.9 4.2 8.7q2.2-0.4 4.5-0.9-1.6-7.8-3-15.7c-7.6-1.9-10.6-2-14-1.3-21 5.3-16.4 41.4-1.9 50.6 8 5 20.7 2.5 25.7-8.3zm40.1-27.6c-3.1-12.7-12.5-26.1-28.4-21.8-22.4 7.2-15.6 42.9 0.6 50.7 13.1 6.3 34.2-3.1 27.8-28.9zm-10.3 3.4c3.2 14.5-3.6 16.5-6.5 17.3-15.1 2.9-17.6-23.5-13.9-29.6 1.8-3 14.2-11.6 19.9 10.3 0.2 0.6 0.4 1.4 0.5 2zm91.3-6.6q-1-2.8-2-5.7c-1.1-2.5-1.1-2.5-7.1-1.2q-4.1-10.9-8.5-21.6c-5.1-11.9-12.5-16.2-21.1-12.5-5.5 2.5-8.4 7.1-8.6 13.7-8.4-10.8-18-6.3-21.7 4.5-0.5-1-1.2-2.4-1.8-3.4-1-1.4-1.7-1.8-3.1-1.4q-3 0.9-5.9 1.8-2.9 0.9-5.9 1.7 0.8 2.9 1.7 5.7c0.9 2.7 0.9 2.7 7.1 2.2 3.1 10.2 6.2 20.5 9.2 30.8-5.8 3-5.9 3-5.2 5.8q0.8 2.9 1.6 5.8 11.6-3.4 23.1-7.3-0.9-2.8-1.8-5.7c-0.9-2.6-1-2.6-7.5-1.9q-4.1-13.5-8.4-26.9c3.1-9.1 11-10.3 14.7-2.3 0.3 0.7 0.6 1.6 0.9 2.3 3.6 10.5 7.1 21 10.4 31.6q5.4-1.9 10.7-3.9 3-1.1 5.9-2.3-0.9-2.8-1.9-5.6c-1.1-2.7-1.2-2.6-7.5-1.5q-3.7-11-7.7-21.9c-3.8-10.8 4.7-13.9 8.5-12.1 2.8 1.4 4.3 5 5 6.7 4.1 10.3 8 20.7 11.5 31.2q8-3.2 15.4-6.6zm22.8-44.2c-4.8-10-14.3-19.5-25.4-13.3-16.5 10.6-4.2 45.9 12.9 49.7 8.7 1.9 19.6-4.9 21.1-17-1.2-0.9-2.9-2-4.1-2.9-1.3-0.9-2.3-0.5-3.2 1.5-3.4 7.3-12.3 16.2-21.8-2q11-5.4 20.8-11c1.3-0.8 1.3-1.9-0.3-5zm-23.4 9c-4.5-15.2 5.5-17 9.5-14.7 3.2 1.8 5.1 5.5 5.8 6.8q-7.3 4-15.3 7.9zm39.5-10.9c-4.4-9.1-9.6-18.1-15.5-26.7-0.2 0-0.4 0-0.6-0.1v0.8c0 5.9 0 5.9 1.2 7.7 6.1 9 14.3 23.8 18.1 34.8 0.2 0.1 0.6 0.2 0.8 0.3 0.4-6.1 0.5-7.5-4-16.8zm38.4-32.2c-6.7-11.5-16.6-24.8-17.9-25l0.2 0.8c0.8 2.7 1.7 5.7 1.7 5.7 0.2 0.5 0.8 1.1 1.1 1.5 2.5 3.1 7.4 9.6 12.6 18.2 4.4 7.3 6.5 11.9 7.2 13.6 0.3 0.5 0.7 1.2 1.2 1.4-0.8-5.6-1.1-7.5-6.1-16.2zm-14.2-7.8l-0.3-4.1c-2.7-2.1-6.4-5.1-8.1-7.3-0.3-0.3-0.7-0.9-1.2-1l0.1 0.6c0.6 3.9 1.1 5.3 4.4 9.5 7.7 9.8 15.5 23.4 15.8 24.8 0.9 3-0.7 13.3-6.5 9.8-3.7-2.2-5.8-8.8-7-12.4-0.5 0-1.1-0.1-1.6-0.1 5.7 21 14.2 27.1 18.2 19.4 1.4-2.9 2.2-8.4 0.4-13.6-2.4-6.8-6.9-15-13.2-24.1-0.3-0.5-0.8-1-1-1.5zm20.1-47.2l-2.2-3.5c0-0.1-7.3-7.4-7.4-7.4l0.4 0.5c6.4 9.2 14.3 17.3 20.3 26.9 0 0 3.6 7.5 2.1 9.3-0.7-0.1-2-0.3-8.1-10.4-0.2 0-0.5 0-0.7 0.1 9.4 15.7 12.8 20.3 13.6 18.2 2-5.4-7.7-19.2-18-33.7zm-21.4-28.7l-0.7-0.7-4.4-4.1q1 0.9 1.8 1.8c3 3 7.1 6.9 9.9 10 0 0-6.6-7-6.6-7zm-40.3 81.6c-0.1-0.2-0.3-0.6-0.5-0.7-6.5 5.2-6.9 0.8-6.9 0.7 0.2-2.5 2-1.5 3.5-0.7q0.1-0.1 0.3-0.2c-1.1-5.3-3.5-5-4.7-4.1-2.3 2.6-1.7 10.6 3.5 11.2 0.2 1.3 0.4 2.2 0.8 3.5 0.2 0.1 0.4 0.2 0.6 0.3 0.6-2.2 1.8-4.2 4.3-6.7-0.1-0.6-0.4-1.8-0.9-3.3zm-237.8 59.8q0.2-3 0.4-5.9-8.2-0.3-15.7-1-0.3 2.9-0.6 5.9c-0.1 2.6 0.1 2.7 3.3 4.2-3.7 18.2-4.9 24.3-6.7 36.3-0.4 3.2-0.4 4.3-0.6 7-6.2-34.6-6.2-34.6-7.3-51.8-0.2-2.8-1-3.2-1.9-3.5q-1-0.1-2-0.3c-4 0.1-10.6 30.9-13.3 44.2-0.2 1.1-0.6 3.3-0.9 7.2-2.7-24.8-3.1-28.6-2.7-45.5 2.4-0.5 2.7-0.5 3.2-3.1q0.5-2.9 1.1-5.8-6.1-1.8-11.3-4-0.6 2.8-1.2 5.7c-0.5 2.7-0.2 3 1.7 4.7 0.1 29.3 0.5 36.1 6.6 65.5q3 0.9 6.3 1.7c1.5-13.4 3-27.3 8.1-47.7 0.7-2.7 0.7-2.7 1-4 7.5 44.8 7.5 44.8 10.7 55.3q3.7 0.5 7.6 0.8c2.6-25.3 3.6-32.9 10.1-62.2 3.4-0.9 4-1 4.1-3.7zm59.5 64.2q-0.6-2.9-1.1-5.9c-0.6-2.6-0.6-2.6-6.6-3.3-3.7-21.6-6.1-43.4-7.3-64.8q-6.8 0.7-13.4 1.2 0.1 2.9 0.2 5.9c0.2 2.7 0.2 2.7 5.3 3.6 0.9 18.2 2.8 36.7 5.7 54.9-5.4 1.8-5.4 1.8-5.1 4.5q0.4 3 1 5.9 10.4-0.7 21.3-2zm-132.4-79.9q0.2-0.8 0.4-1.7c0.2-0.6 0.1-0.9 0-1.1q-0.1-0.3-0.2-0.5 1.4-6.1 3.2-11.9-0.8-0.7-1.4-1.4-0.3 0.8-0.5 1.6c-0.2 0.7-0.2 0.9-0.1 1.2q0.1 0.2 0.2 0.5-1.3 4.5-2.4 9-0.2 0-0.4-0.1c-0.2 0.1-0.2 0.1-0.4 0.7q-0.2 0.9-0.4 1.7 0.9 1.1 2 2zm5.6 4.4q0.2-0.9 0.4-1.7c0.1-0.6 0.1-0.9-0.1-1.2q-0.1-0.2-0.3-0.5c0.5-2.2 1-4.4 1.6-6.6 0.9-3.7 0.9-6.1-0.1-6.8-0.4-0.2-0.9-0.3-1.9 1 0.1-0.3 0.2-0.8 0.3-1.2 0.1-0.5 0-0.6 0-0.8-0.1-0.1-0.2-0.1-0.2-0.1q-0.3-0.2-0.5-0.4-0.3-0.3-0.6-0.6-0.2 0.9-0.5 1.7c-0.2 0.7-0.1 0.9 0 1.2q0.1 0.2 0.3 0.4-1.3 4.6-2.4 9.2-0.2-0.1-0.5-0.1c-0.2 0-0.2 0.2-0.4 0.7q-0.2 0.9-0.4 1.7 0.6 0.5 1.1 1 0.6 0.5 1.2 0.9 0.2-0.8 0.4-1.7c0.2-0.6 0.1-0.9 0-1.1q-0.2-0.3-0.3-0.5c0.6-2.7 1.2-5.3 1.9-7.9 1.5-2 1.8-0.1 1.8-0.1 0.1 0.9-0.2 2.2-0.4 2.7q-1.2 4.7-2.2 9.5 0.9 0.7 1.8 1.3zm-10.8-47q0.2-0.6 0.4-1.2 0.2-0.7 0.4-1.4 0.3-0.9 0.7-1.8 0-0.1 0.1-0.3c-1 2.7-2.2 6.4-3.1 9.1 0.2-0.5 0.6-1.8 1.4-4.2q-0.1 0.1-0.1 0.2 0.1-0.2 0.2-0.4zm-0.4 1q-0.1 0.3-0.2 0.7l1.2-3.8c-0.2 0.7-0.7 2-1 3.1zm0.1 15.2q0.2-0.7 0.4-1.3-0.1-0.6-0.3-1.2c0.1-1 0.1-1.4 0-1.8 0-0.2-0.2-0.7-0.8 0.5-0.4 0.8-0.8 1.9-0.9 2.4-0.7 1.9-1 3.4-1.1 4.2-0.1 0.7-0.6 1.3-0.8 2-0.3 1.2-0.5 2-0.5 2.5-1.1 0.8-2.1 8.1-1.2 8.3 0.6 0.2 2.5-5.3 2-8.3-0.1-0.8-0.3-2.1 0.4-3.1 0 0.5 0.1 1.4 0.5 0.9 0.5-0.5 1.2-2.4 1.8-4.8q0.1 0.1 0.2 0.2c0.1-0.1 0.2-0.1 0.3-0.5zm-2.8-3.5c1.4-4.5 2.5-8 2.7-9.2q0-0.1-0.1-0.2c-0.1 0.1-0.1 0.1-0.5 1 0.1-0.4 0.3-1 0.5-1.4 0.1-0.4 0.2-0.6 0.2-0.8q0.1-0.4 0.1-0.7 0.1-0.4 0.2-0.7-0.3 0.8-0.6 1.5c-0.2 0.6-0.2 0.9-0.3 1.2q-0.1 0.3-0.2 0.6-2.1 6.3-3.8 12.8 0-0.1 0-0.2-0.1 0.3-0.2 0.6-0.2 0.8-0.4 1.6-0.3 1.3-0.4 2.6 0.2-0.8 0.4-1.6c0.1-0.7 0.2-0.9 0.2-1.2q0.1-0.3 0.2-0.6 0.3-1.5 0.8-3c-0.5 2-0.6 2.6-0.6 2.8 0.2 0 0.3-0.1 1.8-5.1zm-1.4 15.5c-0.3 1.3-0.5 1.2-0.6 1 0-0.1-0.1-0.2-0.1-0.3-0.2-1.3 0.4-3.7 0.8-4.2 0 0.7 0.2 1.3 0.2 2 0 0.7-0.2 1.3-0.3 1.5zm23.7 8.8q0.2-0.7 0.4-1.4-0.8-0.4-1.6-0.8c-0.1-0.5-0.4-1.1-1-1.5-2.2-0.9-4.2 4.9-3.4 8.2-1.1 0.8-1.6 3.2-1.3 4.6-2.1 1-2.3 7 0.5 8 2.3 0.9 4.3-4.8 3.2-7.5-0.4-0.7-1.1-1.3-1.4-1.5-1.8-1.2-0.6-2.4-0.5-2.6 1.5 2 3.5-0.4 4.1-4.7q0-0.1 0-0.2c0.2 0 0.4 0 0.5 0 0.2 0 0.4 0 0.5-0.6zm-2.5 2c-0.2 0.6-0.7 2.2-1.5 1.7-1.2-0.8 0-4.7 0.8-4.9 0.3-0.1 1.5 0.2 0.7 3.2zm-2 11.2c-0.2 0.9-0.6 1.8-1.7 1.2-1.6-1-1.1-3.5-0.1-4.2 0.5 0.5 1.3 0.8 1.7 1.5 0.3 0.6 0.2 1.3 0.1 1.5zm-17.6-38.7c-0.9 2.6-1.1 3.3-1.2 3.4-0.1 0-0.1 0 0-0.2 0-0.6 0.3-1.6 0.5-2.1q0.9-3.1 1.9-6.2c0.3-0.7 0.3-0.7 0.4-0.8 0.1 0.3-0.5 2.1-1.6 5.9zm-2 12.5q0.3-0.8 0.5-1.6c0.2-0.8 0.2-1 0.2-1.2q0-0.2 0-0.4 0.9-3.1 1.9-6.2c1.8-5.7 1.7-6.8 1.7-7.2 0-0.1-0.1-0.2-0.1-0.2-0.4 0-0.6 0.7-1 2-0.2 0.7-0.2 0.8-0.2 0.9q0 0 0 0c0.2-0.2 0.2-0.2 0.3-0.2 0.2 0.4-0.2 1.7-0.8 3.7q-0.1 0.4-0.3 0.8c0-0.5 0-1.2-0.3-0.8-0.6 0.6-2.4 7-2 7.9q0 0 0 0.1c0.1-0.1 0.2-0.2 0.5-0.8-0.1 0.3-0.2 0.7-0.3 1.1-0.1 0.6-0.2 0.8-0.2 1.1q0.1 0.5 0.1 1zm2.9 9.3q0.2-0.8 0.4-1.6c0.2-0.8 0.2-0.9 0.1-1.2q0-0.2-0.1-0.5 2.4-9.1 5.7-17.9-0.4-0.8-0.7-1.5-0.3 0.8-0.6 1.6c-0.2 0.7-0.2 0.9-0.2 1.1q0 0.3 0.1 0.6-0.9 2.3-1.6 4.7c0.4-3.3-0.4-2.6-0.5-2.5-1.9 1.6-5.1 14.4-3.8 14.8q0.3 0.1 1-1.1c-0.1 0.4-0.3 1-0.4 1.4-0.1 0.6-0.1 0.7 0 0.9q0.3 0.6 0.6 1.2zm0.4-15.8c-0.2 0.7-0.6 1.8-0.8 1.5q0 0 0-0.1c-0.2-1.1 1.1-4.9 1.4-4.7 0.1 0.1 0.2 0.9-0.6 3.3zm2.1 20q0.3-0.9 0.5-1.7c0.1-0.8 0.1-0.8-0.1-1.5q0.8-3.3 1.8-6.5c1.1-3.9 1.3-6.3 0.6-7.2q-1.2-0.9-1.8 2.1c-0.2 0.7-0.1 0.8 0 0.9 0.3 0 0.4-0.4 0.8-0.4 0 0 0.2 0 0.3 0.5 0.1 0.8-0.4 2.4-0.6 3.2q-0.1 0.4-0.2 0.8c-1.9-2.7-3 3.3-3.2 4-0.5 3.1 0.2 3.9 0.8 3.5 0.2-0.2 0.5-0.7 0.7-0.9-0.1 0.4-0.2 0.8-0.3 1.2 0 0.5-0.1 0.8 0.1 1.1q0.3 0.4 0.6 0.9zm0-5.2c-0.5 0.8-0.8 1-1 0.6-0.4-0.7 0.2-3.9 1.1-3.6 0.3 0.1 0.5 0.4 0.6 0.6q-0.4 1.2-0.7 2.4zm358.8-96.7c-0.8-0.8-2.2-2-2.2 0.4 0 1.3 0.9 2.3 0.8 3.5-0.1 1.4-0.9 3.2-1.3 4.6-0.6 0.8-1.1 0.3-2.6-1.2-6.1-6-6.2-6-6.5-6.2-0.8-0.3-2 1.7-2 2.3 0.2 1.5 0.8 1.3 1.1 1.3 1.9-0.7 1.9-0.7 6.9 4.2 2.4 2.1 3.4 2.6 4.3 0.9q1.7-4.2 2.3-8.3c0-0.2 0-0.6-0.8-1.5zm-356.2 103.8c0.4-0.5 0.2-1.5 0.3-2.1v-0.3-0.1h-0.1l-0.1 0.1h-0.2c-0.4 0-0.2-1.1 0-1.8q1-4 2.2-7.9 0.4 0.5 0.9 1 0.3-1.3 0.7-2.5-0.4-0.5-0.9-1 0.8-2.3 1.5-4.6-0.2-0.2-0.4-0.4 0 0 0 0c-0.2 0.1-0.2 0.1-1.8 4.1l-0.6-0.2q-0.2 0.7-0.4 1.4c-0.2 0.6-0.1 0.7-0.1 0.9q0.2 0.2 0.3 0.4-1.2 4-2.3 8.1c-1.2 5.1 0.1 5.6 0.7 5.2q0.2-0.1 0.3-0.3zm6.9-16c0.4-1.4 0.5-2.7 0.2-3-0.7-0.4-1.9 2.7-1.6 4.2 0.1 0.5 0.5 0.5 0.9-0.1 0.3-0.5 0.4-1 0.5-1.1zm-11.7 4.1c-0.5 1.1-0.7 1.1-0.8 0.8-0.5-1.3 2.1-9.9 2.7-9.4q0.4 0.2 0 2.2-1 3.2-1.9 6.4zm-2.3-8.7c-0.1 0.2-0.3 0.8-0.4 0.6 0 0-0.1-0.1-0.1-0.2 0.1-0.7 0.8-3.7 1.1-3.4 0.1 0.1 0.1 0.5 0.1 0.7q-0.4 1.1-0.7 2.3zm107.5 22.6c0-0.1 0.1-2.5-1.8-2.3-1.8 0.4-1.9 3.4-0.7 4.2 0.8 0.6 2.3 0 2.5-1.9zm246.8-128.5c-1.1-1-6.9-5.9-7.4-4.4-2.3-2-2.3-2-2.9-1.8 0 0.1 0 0.2 0 0.3 0.1 0 0.2 0.1 0.2 0.2 0.8 0.8 1.8 1 2.6 1.7 0.4 0.3 0.4 0.3 0.9 1.1 0.5 0.9 2 2.8 5.6 6.3 1.8 1.7 3.6 3.3 4.2 3.8 0.6 0.5 6 5.1 6.1 3.6 0.1-1.2-3.7-5.9-9.3-10.8zm0.1 0.6c0.9 0.8 5.4 4.8 6.8 7.4 0.1 0.4 0.3 1-0.8 0.5-3.8-1.9-13-11.3-11.5-11.7 0.6-0.1 2.8 1.4 5.5 3.8zm-37 70.7c-3.4-6.5-7.9-15.2-11.5-21.6q-1.4 1.1-2.9 2.1c2.5 4.2 5.9 9.8 8.2 14.1-3.7-3.4-8.5-8-12.2-11.4q-1.5 1.1-3.1 2.1c5.6 5 13.1 11.6 18.5 16.7q1.5-1 3-2zm8-5.9q-7.5-9.6-15.6-18.6-1.3 1-2.6 2 8 9 15.3 18.8 1.5-1.1 2.9-2.2zm-49.4 18.6q-0.7-1.1-1.3-2.2c-4.3-6.8-8.7-9.1-12.9-6.9-3.6 2.3-3.7 7.3-0.5 13.7q0.2 0.3 0.3 0.5c6.6 11.7 15.3 8 16.8 2.9 0.4-1.1 0.3-2 0.3-2.6-1.1-0.6-2.6-1.5-3.7-2.1-0.2 4.8-4.5 5.7-7.4 2.6-0.5-0.5-0.8-1-1.1-1.3q4.9-2.3 9.5-4.6zm-6-1.9q-2.8 1.3-5.6 2.6c-2.5-6 1.4-6.2 2.6-5.7 1.4 0.6 2.3 2 2.7 2.7q0.1 0.2 0.3 0.4zm33.1-1.5q-4.3-6.5-8.8-12.8c-4-5.3-6.9-6.7-9.9-4.6-1.2 1.2-1.5 2.3-1.1 4.7-4.5-3.4-7.7-0.9-7.6 3.5-0.4-0.6-1.1-1.5-1.6-2.2q-1.6 0.9-3.3 1.8 6.4 10 12.4 20.5 2-1 3.9-2-4.3-7.4-8.9-14.5c-0.7-3.6 2.2-3.8 3.3-3 0.8 0.5 1.5 1.6 1.8 2.1q4.3 6.4 8.3 13 1.9-1 3.7-2c-2.7-4.2-6.3-9.8-9.1-14-1.3-4.1 2-3.8 2.6-3.5 0.9 0.5 1.7 1.6 2.1 2.2q4.5 6.3 8.7 12.8 1.7-1 3.5-2zm32.5-23.8q-5-6.1-10.4-11.8c-5.7-6-7.9-5.2-9.2-3.8-0.7 1.1-0.7 2.1 0.1 4.1-0.6-0.6-1.4-1.4-2-2q-1.1 1-2.3 1.9 8.2 8.9 15.7 18.5 1.4-1.1 2.7-2.1-5.4-6.8-11.2-13.1c-1.6-3.8 1.3-3.5 1.7-3.3 0.9 0.4 1.8 1.4 2.3 1.9q5.3 5.8 10.2 11.8 1.3-1.1 2.4-2.1zm15.2-16.9q-0.2-0.1-0.3-0.3c-1.1-0.7-2-1.5-3.8-3.4q-3.7-3.7-7.6-7.3c-5.3-4.8-7.7-4-8.7-2.6-1.1 2 0.2 5.2 3.2 8.2q0.9-1 1.7-2c-2.6-2.6-1-3.4-0.5-3.4q1 0.1 2.8 1.8 0.5 0.4 1 0.9-0.4 0.5-0.7 0.9c-3.6 5.4 6.2 12.9 8.7 12.6 0.8-0.2 2.6-0.8 1-4.6 0.7 0.6 1.1 0.9 1.6 1.3q0.8-1 1.6-2.1zm-6.5-2.5c0.5 0.9 1.1 2.2 0.5 3.1-0.7 0.8-2-0.3-2.7-1-1.3-1.3-2.4-2.9-1.4-4.3q0.3-0.4 0.6-0.7 1.5 1.4 3 2.9zm-19.8-62.2c-1.2-0.8-2.8-1.8-4-2.5 1.2 0.8 2.2 1.5 3.4 2.3-1.8-1.1-4.8-2.8-4.8-2.8 0.4 0.3 0.9 0.7 1.3 1.1l0.5 0.3c5 2.9 8.4 5 11.9 7.4 2.8 2.5 8.9 6.9 9.8 7.4-0.1-0.2-0.3-0.4-0.5-0.5q0 0 0 0 0 0 0 0 0 0 0 0 0 0 0 0 0 0 0 0 0 0 0 0 0 0 0 0 0 0 0 0c-2-1.7-5.3-4.2-6.3-4.9q0.3 0.2 0.5 0.4c-1.1-0.9-2.7-2-3.8-2.8l-0.1-0.1c-2.7-1.8-5.3-3.6-7.9-5.3zm-283.6 143.6q2.1-8.5 4.7-16.8-0.9-0.2-1.8-0.5-2.7 8.2-4.9 16.7 1 0.3 2 0.6zm21.5 4.4q1.6-8.6 3.5-17-1.1-0.1-2.2-0.3-2 8.4-3.6 17 1.2 0.2 2.3 0.3zm17.9 1.5q1.5 0.1 2.9 0.1l-1.8-8.8 3.9-8.3q-1.3 0-2.6-0.1l-2.4 5-0.7-5.1q-1.3-0.1-2.6-0.2l1.2 8.5-4.1 8.6q1.4 0.1 2.8 0.2l2.4-5.3c0 0 1 5.4 1 5.4zm-31.1-3.8q1.2-5.5 2.6-10.9c1.2-4.7 0.9-6.6-0.9-6.8-0.9 0-1.5 0.5-2.5 1.7 0.2-0.6 0.4-1.4 0.6-1.9q-1-0.3-1.8-0.5-2.6 8.3-4.7 16.7 1 0.3 2 0.6 1.4-6 3.1-11.9c1.6-2.6 2.4-0.6 2.4-0.6 0.2 0.6-0.1 1.8-0.2 2.3q-1.5 5.4-2.7 10.8 1 0.3 2.1 0.5zm43.9 4.1q0.5-5.6 1-11.1c0.4-4.7-0.4-6.5-2.8-6.3-1.1 0.3-1.7 0.8-2.6 2.2 0.1-0.6 0.1-1.4 0.2-2q-1.2 0-2.4 0-1.3 8.5-2.2 17.1 1.3 0 2.7 0 0.6-6.1 1.4-12.1c1.3-2.6 2.8-1.6 3-0.8 0.2 0.7 0.1 1.6 0.1 2q-0.7 5.5-1.1 11 1.4 0 2.7 0zm8.9-13l0.4-4.4c-0.4-0.2-0.7-0.2-1.1-0.1-0.9 0.3-1.4 0.9-2.1 2.3 0-0.6 0.1-1.4 0.1-2q-1.3 0-2.5 0.1-0.9 8.4-1.5 17.1 1.4-0.1 2.8-0.1 0.3-5.6 0.8-11.2c0.7-1.8 1.6-2 3.1-1.7zm9.5 12.3q0.1-0.1 0.1-0.2c-0.3-1-0.4-1.9-0.4-3.7q0.1-3.7 0.2-7.4c0.1-5.1-2.2-5.9-4.1-5.8-2.9 0.5-4.2 3.2-4.5 5.6q1.4 0 2.8-0.1c0.2-2.6 2.1-2.3 2.5-1.8 0.6 0.6 0.5 1.8 0.5 2.2q0 0.5 0 1-0.7 0-1.3 0c-6.5 0.6-5.8 8.3-3.8 10.1 0 0.1 2.5 2.4 4.8-1.2 0.1 0.7 0.1 1 0.3 1.5q1.5-0.1 2.9-0.2zm-3.2-4.6q-0.6 1.6-2 1.7c-1.1 0-1.3-1-1.3-1.9q0-0.1 0-0.2c0.2-1.7 0.9-2.4 2.4-2.5q0.5 0 1-0.1 0 1.5-0.1 3zm152.3-26.8c-1.2-2.7-3.4-5.9-7.2-5.8 3.2-4.5-2.2-13.5-9.2-12.4-1 0.1-2 0.5-2.7 0.7q-3.5 1.5-7.2 2.9c4.6 9.4 9 19.1 13.3 29.1q4.6-1.8 9-3.6c1.8-0.9 7.2-3.5 4-10.9zm-11.2-10.2c1.4 3-0.8 4.1-1.6 4.5q-1.7 0.7-3.3 1.3-1.8-3.6-3.5-7.2 1.5-0.6 3-1.2c1.2-0.4 3.7-1.4 5.4 2.6zm6.5 11.5c0.6 1.5 0.8 3.6-1.8 4.8q-1.9 0.8-3.9 1.6-1.8-4-3.7-7.9 2.1-0.8 4.1-1.7 3.5-1.1 5.3 3.2zm50-51.8c-0.9-1.1-2.8-2.6-4.1-1.5-1.3 1.7 2.3 5.1 4 5 1.2-0.1 1.9-1.5 0.1-3.5zm38.2 5.9c-7.7-8.6-15.9-16.7-24.6-24.2q-0.8 1-1.7 1.9 4.6 4.1 9.1 8.4c-4.8-1.9-4.6 1.7-3.8 3.7 2.9 7.2 15.8 19.4 17.9 13.9 0.4-1.2-0.1-2.7-0.5-3.6 0.5 0.5 1.3 1.3 1.8 1.8q0.9-1 1.8-1.9zm-6.9-3.3c0.9 1.6 1 2.4 0.4 3.2q-1.4 1.1-4.6-2c-1-1-6-5.9-5.8-8 0-0.3 0.3-2 3.3-0.2q3.4 3.4 6.7 7zm-263.6 79.3q0.2-1.8 0.5-3.5c-1.8 0.3-1.6-0.8-1.5-1.8q0.7-4.3 1.5-8.5 0.8 0 1.6 0.1 0.3-1.7 0.6-3.3-0.8-0.1-1.5-0.2 0.4-2 0.8-4.1-1.1-0.1-2.3-0.2-0.5 2.1-0.9 4.1-0.6 0-1.3-0.1-0.3 1.7-0.7 3.3 0.7 0.1 1.3 0.1-0.9 4.6-1.6 9.2c-0.7 5.8 1.9 5.5 3.5 4.9zm-5.2-20.8q0.3-1.3 0.6-2.6-2.8-0.4-5.5-0.8-0.3 1.3-0.7 2.6 2.7 0.4 5.6 0.8zm-31.1 5.2l7.7-13.2q-1-0.3-2-0.7l-5.3 9.3 1.9-10.6q-1-0.4-1.8-0.8l-2.3 15.3q-1.3 4-2.4 8.1 0.9 0.4 1.9 0.7 1.1-4.1 2.3-8.1zm9.8-10.7c0-0.1 0.9-2.5-0.3-2.8-1.3 0-2.4 3.6-1.7 4.4 0.5 0.5 1.4 0.1 2-1.6zm11 24.6q2.3-12.2 5.6-24-1.1-0.2-2.1-0.3-1.2 4.2-2.3 8.5c-0.7-3.4-2.9-2.4-4.3-0.3-3.6 5.4-4.7 16.6-0.7 15.6 0.9-0.2 1.5-1.1 2-1.7-0.1 0.6-0.2 1.3-0.3 1.9q1 0.1 2.1 0.3zm-1.3-5.5c-0.6 1.2-1 1.5-1.8 1.5-0.4-0.1-1.4-0.4-0.7-4.1 0.1-0.2 1-5.3 2.6-6.1 0.2-0.1 1.4-0.6 1.5 1.9q-0.8 3.4-1.6 6.8zm66.6-2.1q0-0.2 0-0.3c-0.3-10.6-5.1-8.3-6-7.4-0.3 0.3-0.6 0.8-0.8 1.2q0.1-4.4 0.3-8.6-1.3 0.1-2.7 0.2-0.7 11.9-0.8 24.1 1.3-0.1 2.7-0.2l0.1-1.8c1.9 3.2 5.4 2.2 6.6-2 0.6-2 0.6-4.2 0.6-5.2zm-3 0.4c0 3.5-0.6 4.8-2.1 5.1-1 0-1.5-0.4-1.9-1.7q0-3.4 0.1-6.7c0.9-2.6 2.8-2.4 3.4-0.9 0.5 1.1 0.5 2.9 0.5 4.2zm212.7-128.3c-0.8-0.6-1.9-1.2-2.7-1.7-3.1-1.9-6.9-3.7-7.7-2.2-1.5-1-3.8-2.4-3.6-1.3q0 0 0 0c0.4 0.6 1.2 0.6 1.8 0.9 1.2 0.6 1.4 0.9 2 1.6 3.3 5.4 19.2 15.4 19.6 12.4 0.1-1.6-3-5.4-9.4-9.7zm-18-13.4c-2.2-1.2-2.1 0.1-2 0.4q0 0.1 0.1 0.2c1.3 1.5 3.3 0.8 4.9 1.6q3.1 1.6 6.1 3.3c0.8 1.1 0.9 2.6 1.9 3.6 0.2 0.1 1.6 0.8 1.9 0-0.7-0.9-1.5-1.7-2.1-2.6q4.3 2.5 8.4 5.2c0.9 1.2 1.2 2.7 2.2 3.8 0.3 0.4 1 0.5 1.6 0.4q0.1-0.1 0.1-0.2c-0.7-1-1.4-1.9-2.2-2.9q3.4 2.2 6.6 4.6c2 1.5 2.3 1.6 2.7 1.9-0.5-1.2-12.4-9.9-28.6-18.5q-0.8-0.4-1.6-0.8zm2.3-2.9l-4.4-2.6 0.1 0.1c1.7 0.9 3.3 1.9 5 2.8q-0.4-0.1-0.7-0.3zm-90 131.3c-0.1-0.3-0.1-0.7-0.1-1-29 13.6-33.4 8.6-36.3 5.3q-2.7-10.3-5.3-20.2-4.9 1.3-9.9 2.5 0.9 4.2 1.8 8.4 2.1-0.5 4.2-1 1.5 6.3 3 12.7c-1.3 2.4-2.3 4-4 6.5 1.6 2.6 3.8 6.1 5.5 8.7 0.2-0.3 0.2-0.3 3.7-9.6 4.6 4.4 8.5 8.2 38.5-4.1-0.8-3.7-1.1-7-1.1-8.2zm105.4-114.5c1.1 0.7 6.6 4.4 7.4 7.2 0.2 2.7-9.3-3.7-12.5-6.5-3.4-2.9-3.1-4-2-4 1.2 0 4.1 1.3 7.1 3.3zm4.4-3.5c0.2 0.2 1.3 1 2 1.6 0.2 0.2 0.3 0.2 0.3 0.3-0.3-0.1-3.5-2.7-3.6-2.8q0.6 0.4 1.3 0.9zm4.7 18.1c-1.4-1.1-2.1-1-1.9 0.4 0.1 1.2 1.3 2.1 1.2 3.5q-10.3-7.8-21.5-14.5c-3.8-2.3-4.9-1.3-5.2 0 1 2.6 3.9 0.6 5.6 1.5 8.3 5 16.2 10.5 23.7 16.4 0.7 2.9 1 5.2 1.1 8.5q-1.4-1.2-2.8-2.3c0.4-3.7-9.3-13.3-14.1-10.8-2-1.6-2-1.6-3-1.9 1.2-4.2 1.2-4.2 1.1-4.4-0.1-0.6-1.7-1.8-2.5-1.3-1.2 0.9 0.4 2.2 0.5 3.3q0 0 0 0.1c-0.7 2.9-0.7 2.9-3.3 6.8 0.2 0.7 3.1 1 3.8 0.4-0.4-1.6-0.4-1.6 0.3-3.9 2.5 0.8 2.6 1.9 2.7 2.7 0.4 3.5 10 13.1 14 10.3 0.9 0.7 2.1 1.7 3 2.5 0.3 2.4 0.3 2.4-2.2 6.5 0.2 1 4.2 0.9 5.1 0.3 0-0.1-0.1-8-2.7-16q4.4 3.6 8.7 7.4c1.5 1.3 1.7 1.4 2 1.5 0-0.7-2.8-4.1-12.8-11.9 0.3-4.1 0.3-4.1-0.8-5.1zm-5.8 6.5c1.1 0.9 4.4 3.7 3.6 6-1.6 2.8-9.2-3.4-10.1-6.5-0.5-1.6 0.5-3.1 4.1-1.1 0.8 0.4 1.7 1 2.4 1.6zm-16.5-11.5c-0.4-0.4-1-0.6-1.4-0.7-0.4 0-0.4 0-0.8 0.6-0.2 0.4-0.9 1.9-2 2.6-0.1 0.1-0.1 0.2-0.2 0.3 0 0.1 0 0.4 1.2 0.7 1 0.3 2.5 0.5 2.7 0.3q0.3-0.7 0.6-1.5c0.4-0.9 0.7-1.6-0.1-2.3zm5.8-21.5l-2.9-1.8c1.1 0.6 1.1 0.6 2.9 1.8zm-16.1 46.4q0.7-0.7 1.4-1.5c-6.1-3.8-14.2-8.9-20.4-12.5q-0.9 0.8-1.7 1.6c5 4.9 11.6 11.4 16.3 16.6q0.8-0.7 1.6-1.5l-4.2-4.3q1-0.9 1.8-1.8zm-73.9 45q1.6-0.7 3.3-1.4l-3.7-3.3c-2.3-2.1-3.2-2.7-4.3-2.8q0-0.1 0-0.1c0-2.6 0-4.8-0.1-7.6q0-0.1 0-0.2-1.6 0.7-3.1 1.3c0.3 3.3 0.5 4.6 0.5 6.9q0 0 0 0-0.9-1.6-1.9-3.3c-0.7-1.4-1.2-2-1.6-2.4q-1.4 0.6-2.7 1.1c0.3 0.3 0.8 1.1 2.1 3.5q2.7 5.2 5.4 10.7 1.5-0.6 3-1.2-1.5-3-3-5.9 0 0 0.1 0c0.9-0.1 1.3 0.3 6 4.7zm29.8-22.6c-0.8-1-3.5-4.4-6.8-6.1q-1 0.5-2 1.1 0 0 0 0c5.1 3.1 9.3 9.8 7.6 9.9-0.8 0-0.8 0-5.8-6.5q-1.1 0.6-2.3 1.2l3.7 4.7c1.8 2.5 0.7 2.6 0.6 2.6-1.5 0-5.8-5.3-7.3-10q0 0 0-0.1-1.1 0.6-2.1 1.1c1.7 7.3 10.1 15.5 12.4 12 0.6-0.8 0.2-2 0-2.7q0.1 0 0.1 0c3.3 2.5 5 0.7 4.6-1.6-0.2-2-1.6-4.1-2.7-5.6zm-16.4 16.9l-1.7-3.1c-0.9 0.5-1 0.5-7.5-10.5q-1.1 0.5-2.2 1c0.3 0.6 0.6 1.1 1 1.8q-0.1 0-0.1 0c-1.4-1-2.6-1.6-4-0.8-3.8 3.3 3 14.3 7.5 14.6 0.8 0.1 3.2-0.1 2.7-4q0 0 0-0.1c0.7 0.8 2.7 3.1 4.3 1.1 0 0 0 0 0 0zm-7.6-5.5c1.8 3 1.2 4.1 0.6 4.5-2.3 0.7-5.9-5.6-5-7.4 0.4-0.8 2.1-0.9 4.4 2.9zm27.5-18.8l-2-3c-1.5-0.1-2.2 0.4-2.7 0.8-3.4 3.6 4.3 13.7 10.2 13.6 0.4-0.1 0.9-0.1 1.6-0.2 0.3 0.4 1.1 1.7 1.7 2.8 0.6 0 1.4 0 2.1 0-0.7-2.1-2-4.2-3-5.6-0.8-1.1-0.8-1.1-1.7-0.9-1.8 0.4-4 0.8-6.5-2.3-2.2-2.6-3-5.3 0.3-5.2zm-89.7 42.9l4-6.3c-0.7-0.9-2.4-3.3-7.7-8.4-1.1 1.6-2.6 3.8-3.6 5.4 1.9 2 5.3 6 7.3 9.3zm-25.1-1.4q-0.3-3.1-0.6-6.2-2 0.4-4 0.8 0-1-0.1-1.9c0.7-0.4 0.9-0.6 1-1.4-1.8 0.1-4.1 0.3-5.8 0.5q0 1.8 0.1 3.6-1.5 0.2-2.9 0.4 0-0.9 0-1.8c0.7-0.4 0.9-0.7 0.9-1.4-1.6 0.1-3.9 0.2-5.6 0.3q0 1.8 0 3.6-1.8 0.2-3.7 0.5 0 3.1-0.1 6.3 1.9-0.3 3.8-0.5 0.1 1.2 0.1 2.5 2.4-0.3 4.9-0.7-0.1-1.3-0.1-2.5 1.5-0.3 3-0.5 0 1.3 0.1 2.5 2.5-0.4 5.1-0.8-0.1-1.3-0.2-2.5 2-0.4 4.1-0.8zm64.9 9.3c-4.1-10.3-8.1-20.2-12.2-29.8q-6.5 2.2-12.9 4.2 0.3 1.1 0.7 2.2l-5-4.3-0.2 0.8c-1 2.3-1.8 3.8-3.3 5.9-0.6 0-1.3-0.1-1.9-0.2 2.7 9.9 5.5 20.1 8.3 30.5-0.9 0.6-1.7 1.1-2.6 1.6 1.4 2.4 3.4 5.7 4.8 8.2 0.5-0.5 0.5-0.7 0.5-1.4 3.7-2.7 6.3-4.7 9.9-7.7-0.9-2-2.1-4.8-3-6.9-1.9 1.3-2.8 1.9-4.2 2.8q-3.4-11.6-6.8-22.7c1.8-1.9 2.7-3.2 3.8-4.9q0.1-0.1 0.3-0.1c4.3 12.9 8.7 26.4 13.2 40.3q3.1-0.9 6.2-1.9-2.2-6.5-4.4-12.9c1.6 2.1 2.9 4.2 4.3 6.9 5.8-2.3 7-3.8 4.5-10.6zm-6.1 1.9c0.2 0.6 0.1 0.8-0.3 1-1.3 0.4-1.9 0.6-2.4 0.7q-4.3-12.2-8.6-23.8 1.3-0.4 2.7-0.9 4.3 11.2 8.6 23zm76.4-51q-8.1-8.5-16.5-16.3-0.9 0.7-1.8 1.3 3.2 3 6.3 6.1-1.5 1.1-3.2 2.1-3.1-3.2-6.2-6.2-0.9 0.6-1.9 1.2 8 8 15.7 16.8 1-0.7 2.1-1.4-3.2-3.6-6.5-7.1 1.6-1.1 3.2-2.2 3.4 3.5 6.7 7.1 1.1-0.7 2.1-1.4zm10.1-33.8q-1.9-1.3-3.7-2.5-1.8 2.1-3.9 4.2 1.9 1.3 3.7 2.6 0.7-0.8 1.4-1.5 7.8 5.5 15.3 11.6 0.6-0.7 1.2-1.4-7.5-6-15.3-11.5 0.6-0.8 1.3-1.5zm-2.6 14.7c-4.2-3.7-11.2-8.1-13.8-5.3-2.5 5 13.2 17.2 17.6 16 2.7-0.7 3.2-4.5-3.8-10.7zm2.9-2c-4.1-4-4.1-4-6.9-6.4q0 0 0-0.1 2 1.3 4 2.5l4.3 2.7q-0.7 0.7-1.4 1.3zm18.8-6q-1.8-1.3-3.6-2.6-0.9 1.2-1.8 2.4-2.3-1.7-4.6-3.3 0.9-1.1 1.6-2.1-1.8-1.3-3.6-2.5-0.7 1.1-1.6 2.1-2-1.4-4-2.7 0.8-1.1 1.6-2.2-1.9-1.2-3.7-2.3-1.2 1.6-2.6 3.3 9.9 6.5 19.3 13.8 1.6-2 3-3.9zm-139.2 106.4c0.1-0.3 0.2-0.6 0.3-0.9-3.6-3.3-9.8-8.8-13-25.5q-0.5-2.8-0.9-5.6 0.5-0.1 1-0.2c0.5 4.7 0.7 6.2 0.8 8.6 1.7 0.9 2.9 1.6 5.2 2.8 0.1-2.9 0.2-8.9-1.5-20.5-1.1 0.2-2.4 0.3-3.5 0.4q-3.6 0.8-7.2 1.6c0-3.4-0.1-5.4-0.2-8.6 0.6-0.2 0.8-0.3 0.9-1.1-1.9-0.2-4.5-0.5-6.4-0.7l0.1 2.9c0.1 10-0.2 14.1-0.9 19.3q-0.5-4.2-0.9-8.4-4.5 0.9-9.1 1.6 0.3 6.3 0.8 12.7c-0.2 1.8-0.4 3.3-0.8 5.5q-0.9 0.1-1.8 0.2l0.3-2.2c0.7-0.2 0.8-0.3 1-0.8-1.1-0.4-2.6-1-3.7-1.4q2-0.3 4-0.6-0.4-6.7-0.7-13.3-4.4 0.7-8.7 1.3 0 6.5 0.1 13.3 1.6-0.2 3.1-0.4c-1.1 7.1-2.2 11.3-4.3 15.7 1.2 2.3 2.5 5.3 3.1 7.1 0.4-0.7 0.6-1.1 1.1-2.2q0.4 7.3 1.1 14.6 2.8-0.4 5.7-0.8-0.1-1.2-0.2-2.5 7.2-1.1 14.5-2.4-0.2-1-0.3-2.1c1.6 2.4 2 3.1 2.7 4.2 1.5-2.7 5.2-9.2 4.9-22.7q0.1 0 0.1 0c3.9 13.1 8.8 17.4 11.1 19.4 1.1-4.9 2-7.8 2.2-8.3zm-34.4-1.7q-1 0.2-2 0.3-0.1-0.7-0.2-1.4 1.1-0.2 2.1-0.3 0.1 0.7 0.1 1.4zm-0.5-6.8q-1.1 0.1-2.1 0.3 0-0.7-0.1-1.5 1-0.1 2-0.3 0.1 0.8 0.2 1.5zm16.2-16.7c2.3 17.3-2.5 25.8-4 28.6q-2.7 0.5-5.4 0.9-0.1-0.7-0.2-1.4 2.7-0.5 5.4-0.9-0.3-2.8-0.7-5.5-2.6 0.5-5.3 1-0.1-0.8-0.1-1.5 2.6-0.4 5.2-0.9-0.3-2.7-0.6-5.4-2.6 0.5-5.2 0.9-0.1-0.7-0.1-1.4 3.1-0.5 6.3-1.1-0.3-3.1-0.7-6.1-3.1 0.5-6.1 1.1c0.2-0.7 0.2-0.7 0.7-2.5 0.6-0.2 0.9-0.4 1-1l-4.2-1q3.4-0.5 6.9-1.2 2.8 2.2 4.7 4.3c1-3.6 1.4-6.2 1.9-10.8q0.2 1.9 0.5 3.9zm-21.1-0.4q-0.7 0.1-1.4 0.2 0-1.4 0-2.8 0.6-0.1 1.3-0.2 0.1 1.4 0.1 2.8zm10.3-1.7q-0.7 0.2-1.5 0.3-0.1-1.4-0.2-2.7 0.7-0.2 1.5-0.3 0.1 1.4 0.2 2.7zm-4.2 32.5q-1.1 0.2-2.1 0.4-0.1-0.8-0.2-1.5 1.1-0.2 2.2-0.3 0 0.7 0.1 1.4zm140-100.6c-3.9-3.7-7-4.6-9.5-2.8-0.8 0.7-1.2 1.1-1.6 1.8q8.5 7.5 16.5 15.9 1-0.7 1.9-1.4-2.9-3-5.9-5.9c2.2-1 3-3.5-1.4-7.6zm-1.9 1.1c1.1 1 2.1 2.4 1 3.4-0.3 0.2-0.4 0.2-0.7 0.3q-2.5-2.4-5-4.6c0.5-1.3 2.4-1.4 4.7 0.9zm11.2-3c1.5 1.4 5 4.7 3.7 6.2-2.7 1.6-12.7-7.9-12.3-9.9 0.4-1.7 4.4 0 8.6 3.7zm0.3 1.3q-1.7-1.4-3.3-2.8-1.1 0.9-2.2 1.8 1.6 1.4 3.2 2.8 1.2-0.9 2.3-1.8zm-39.4 35.9q1.4-0.6 2.8-1.3c-3.7-3.6-8.8-8.5-12.5-12-2.6-2.4-5.8-5.4-7.9-4.4-0.4 0.3-0.5 0.4-0.6 0.5 0.6 1 1.4 2.2 1.9 3.2 1.7-1.1 4.7 2.6 4.7 2.6 0.1 0.2 0.1 0.2 5.5 14.3q1.4-0.6 2.8-1.3l-3-6.8c-0.7-1.4-1-2-1.5-2.9q0-0.1 0.1-0.1c1.2 1.3 1.2 1.3 7.7 8.2z"/>
							<path id="&lt;Compound Path&gt;" fill-rule="evenodd" class="s2" d="m421.1 221.7q-0.3-0.8-0.6-1.6-1.3 1.1-2.6 2.2c-1.1-0.2-1.9 0.2-2.7 0.9-3.7 3.5-2.1 11.8 1.6 12.9-1 2.6-0.4 5.7 1.2 6.4-0.1 1.3-0.8 2.4-0.7 3.7 0.1 0.9 0.4 2.3 1.1 3.2 0.6 0.7 2.2 2 5.1-0.5 4.3-3.9 3.1-12.9 0.2-13.1-1 0-2.5 1.1-3.1 1.5-3.3 2.5-2.3-1.3-2.3-1.3 3.9-1.7 4.3-7.8 2-11.7 0.2-0.4 0.5-0.8 0.7-1.2 0.2-0.3 0.3-0.6 0.1-1.4zm-1.8 6.3c0.2 0.9 0.7 3.1-0.8 4.4-2 1.5-3.3-2.4-3-4.4 0.2-1.5 1.8-3.2 3-1.5 0.4 0.4 0.6 1.1 0.8 1.5zm4.9 13.4c0.3 1.1 0.2 2.8-1.8 4.4-3.3 2.6-3.1-2-3.1-2 0.1-0.9 0.4-1.6 0.4-1.6 0.2-0.1 0.4-0.2 0.6-0.3 0.2-0.1 1.4-0.9 1.4-0.9 1.4-1 1.9-0.8 2.2-0.4q0.2 0.3 0.3 0.8zm27.9-60.5q-0.3-0.8-0.6-1.6-0.3 1-0.7 2c-0.5-0.2-0.8 0.2-1 0.8q-0.7 2.1 0.2 6.1c0.3 1.4 1.1 4.2 2 5.6 0.3 0.4 0.8 0.6 0.9 1.1 0.3 0.9 0.1 1.9 0.3 2.8 0.1 0.7 0.6 2.7 1.2 3.4 0 0 0 0 0.2 2.1 0 0.3 0 1.1 0.3 2.3q0.1 0.4 0.2 0.9c0.5 1.9 1.3 2.9 1.9 2.6 2.5-1.3 0.7-13.3-1-14.2-0.1 0-0.5-0.2-1.1 1.2-1.2 2.6-1.3-1.3-1.3-1.3 1.5-1.6 0.3-7.8-1.2-11.2-0.2-0.3-0.1-0.9-0.1-1.2 0.1-0.4 0.1-0.7-0.2-1.4zm0.5 6.1c0.3 0.9 0.9 3 0.5 4.2-0.4 0.9-1.1-0.4-1.4-1.2-1.5-3.7-0.8-5.5-0.3-5.2 0.2 0 0.6 0.4 1.2 2.2zm4.4 13.3c0.3 1.1 0.5 2.8-0.1 4.3-0.5 1.4-0.9 0.5-1.1 0.2-0.5-1.3-0.6-3.5-0.6-3.8 0.1-0.2 0.2-0.2 0.2-0.3q0.3-0.5 0.5-1c0.4-0.6 0.5-0.6 0.6-0.5 0.2 0.1 0.4 0.7 0.5 1.1zm-1.2-30.4l-4.5-12.9v-0.1q0.1 0.4 0.2 0.7c6.5 19.9 6.5 19.9 8 25.9-0.5-1.8-1.1-4.3-1.6-6.2l-1.4-5.1q-0.4-1.2-0.7-2.3zm-1.1-3.3q0.1 0.1 0.1 0.3c-0.1-0.2-2-5.8-2.3-6.6q0.1 0.1 0.1 0.2zm1.8 10.8c-0.4-1.3-2.6-7.9-3.5-7.9-0.2 0.2-0.2 0.2-0.2 0.6 0 0.5 0 1.3 0.8 4.9-0.2-0.5-0.4-1.1-0.6-1.6-0.2-0.3-0.2-0.3-0.3-0.5-0.2 0.8-0.3 1.5-0.5 2.2q0.4 1 0.8 2.1c0.2 0.4 0.2 0.5 0.4 0.7q0 0 0.1 0c0.1-0.1 0.2-0.2 0.2-0.3q2.6 7.1 4.6 14.6 0.5 1.6 0.9 3.3 0 0.5-0.1 1c0 0.4 0 0.6 0.3 1.5q0.2 1.1 0.5 2.2 0.4-1.9 0.6-3.7-0.2-1.1-0.5-2.2c-0.1-0.5-0.2-0.6-0.3-0.8q0 0-0.1 0c0 0.1-0.1 0.2-0.1 0.3q-0.4-1.7-0.9-3.3-0.1-0.5-0.2-0.9c0.3 0.5 0.3 0.6 0.5 0.7 0.8-1-0.9-8.2-2.4-12.9zm-0.1 1.6c0.9 2.8 1.8 6.3 1.7 7.6 0 0.3-0.1 0.3-0.1 0.4-0.2 0-0.2 0-0.6-0.8q-1.3-4.2-2.7-8.4c-0.5-2.2-0.8-3.7-0.5-4.1q0 0 0.1 0c0.5 0.5 1.6 3.8 2.1 5.3zm-53 76.5q-0.1-0.4-0.2-0.7-0.2-0.8-0.4-1.5c-0.4-1-0.5-1-1.8-0.5q-1.2-4.3-2.6-8.5c-1.1-3.5-3.3-7-7.4-4.1-1.8 1.5-2.6 2.8-3.4 5.6 0.3 0.3 0.7 0.8 1 1.1 0.9 0.9 1.5 0.3 1.8-0.4 1.9-4.2 4-4.4 5.3-0.4q0.2 0.5 0.3 1.1c-9 5.9-5.3 13.5-2.7 14.1 0.7 0.1 3.7 0.5 5.5-5.7 0.2 0.4 0.5 0.9 0.7 1.2 0.3 0.6 0.5 0.8 1.2 0.4q1.4-0.9 2.7-1.7zm-5.6-2.3c-0.5 2.4-1.2 3.2-2.2 3.8-2 1.2-2.6-1.8-2.3-3q0.6-2 3.6-4 0.5 1.6 0.9 3.2zm36.9-22.5q-0.1-0.4-0.2-0.7-0.2-0.8-0.4-1.5c-0.3-1-0.4-0.9-1.3-0.5-0.9-2.8-1.7-5.7-2.6-8.5-1.2-3.4-3.2-6.9-6.1-3.9-1.1 1.5-1.6 2.9-2 5.6 0.2 0.4 0.6 0.8 0.9 1.2 0.9 1 1.2-0.2 1.5-1.3 0 0 1.7-5.8 3.8 0.3q0.2 0.5 0.3 1.1c-6.6 6.4-2.8 14.1-0.6 14.2 0.7 0 2.6-0.4 3.4-5.8 0.2 0.4 0.4 0.8 0.5 1.2 0.4 0.7 0.6 0.7 0.9 0.4 0.7-0.6 1.3-1.2 1.9-1.8zm-4.2-2.2c-0.2 2.1-0.6 3.1-1.4 3.8-1.5 1.3-2.1-1.8-2-2.8 0.1-1 0.6-2.5 2.4-4.2q0.5 1.6 1 3.2zm18.4-14.4q-0.1-0.3-0.2-0.7-0.2-0.7-0.4-1.5c-0.3-1-0.4-0.9-1-0.5q-1.3-4.2-2.6-8.4c-1-2.8-2.9-7.1-5-4-0.4 0.8-1 1.9-1.1 4.6 0 0.7 0.4 1.6 0.8 2.1 0.6 1 0.9 0.1 0.9-0.3 0.3-1.6 0.7-4.6 2-2.9 0.5 0.6 0.9 1.7 1.1 2.3q0.2 0.5 0.3 1.1c-4.4 6.2-1 14.2 0.7 14.1q1.8-0.1 2.1-5.7c0.1 0.3 0.3 0.8 0.5 1.2 0.2 0.6 0.4 0.7 0.7 0.4q0.6-0.9 1.2-1.8zm-3.3-2.2c0 2.3-0.3 3.2-0.8 3.8-1.1 1.3-1.6-2-1.7-2.5 0-1 0.2-2.6 1.5-4.5q0.5 1.6 1 3.2zm12.9-32.1q-0.1-0.4-0.2-0.7-0.2-0.8-0.4-1.5-0.1-0.4-0.2-0.9 0 0.1 0 0.1c-0.8-2.7-1.7-5.5-2.7-8.2q-1.6-4.7-2.1-5.3c-0.1 0.2-0.2 0.2-0.1 1 0.3 1.5 0.8 4.3 1.7 6.4 0.2 0.3 0.2 0.3 0.3 0.4 0.1-1.3-0.9-2.5-0.7-3.8 0.2 0.1 0.3 0.2 1.2 2.8q0.2 0.6 0.4 1.1c0.8 6.8 3 13.3 3.4 13.7 0.2-0.2 0.2-1.1-0.8-5.3 0.1 0.4 0.2 0.9 0.3 1.2q0.1 0.3 0.2 0.6c-0.1-0.6-0.2-1.1-0.3-1.6zm-1-2.6c0.6 2.3 0.7 3.1 0.8 3.6 0 0.2 0 0.2 0 0.2-0.1-0.1-1.2-2.6-1.7-7q0.5 1.6 0.9 3.2zm-219.1 143.4c0.2-7.5 0.5-17.5 0.7-25.1q-2.9 0.7-5.7 1.3c0.1 5 0.2 11.7 0.3 16.7-2.4-4.6-5.6-10.6-7.9-15.2q-2.8 0.5-5.7 1.1c3.9 6.7 9.1 15.6 13 22.3q2.6-0.5 5.3-1.1zm61.5-16.4q-0.2-0.7-0.4-1.3-3-11.1-6.2-22.2-2.7 0.9-5.5 1.8 2.4 8.4 4.7 16.7c-0.9 3.4-5.1 4.8-6.7 2.2-0.2-0.4-0.4-1.1-0.6-1.6q-2.1-7.6-4.2-15.2-2.8 0.8-5.5 1.6 2.1 7.8 4.2 15.5c3.6 11.4 12.2 5.9 13.8 2.7 0.1-0.2 0.3-0.6 0.4-0.8 0.2 0.7 0.5 1.6 0.8 2.3q2.6-0.8 5.2-1.7zm-91.7 11.7q-0.4-1.3-0.7-2.6c-2.2-7.9-6.4-11.4-12.3-10.4-5.1 1.3-7.1 6.1-5.5 13.3q0.1 0.3 0.1 0.6c3.9 13.6 15.8 12 18.8 6.6 0.4-0.5 0.6-1.1 0.7-1.5-1.1-0.9-2.5-2.1-3.5-3.1-2 4.7-7.9 4.8-10.3-1.1q6.3-0.8 12.7-1.8zm-6.4-3.5q-3.7 0.5-7.3 1c-0.8-6.7 4-5.9 5.5-4.7 1.1 1 1.5 2.4 1.7 3.2q0.1 0.2 0.1 0.5zm18.7-6.9l-1.4-6.1c-1.1-0.2-1.6 0-2.5 0.2-1.6 0.7-2.3 1.6-3 3.9-0.2-0.9-0.6-2-0.8-2.8q-2.5 0.4-5.1 0.8 2.7 11.3 5.7 22.3 0.2 0.7 0.4 1.3 2.7-0.4 5.4-0.9-0.2-0.6-0.4-1.3-1.9-7-3.7-14.1c0.5-2.3 1.9-3.1 5.4-3.3zm42.4-0.9q-0.3-1.3-0.6-2.6c-2.4-7.9-6.8-11-13-9.3-5.4 1.9-7.4 7.2-5.7 14.3q0.1 0.3 0.1 0.6c4.1 13.4 16.5 10.5 19.7 4.7 0.3-0.7 0.6-1.2 0.7-1.7-1.1-0.8-2.6-1.9-3.7-2.7-2 5-8.1 5.8-10.7-0.1q6.6-1.5 13.2-3.2zm-6.6-2.9q-3.8 0.9-7.6 1.8c-0.9-6.6 3.9-6.6 5.6-5.3 1.2 0.8 1.7 2.2 1.9 3q0.1 0.2 0.1 0.5zm73.8-19.7c-0.2-0.8-0.6-2-0.8-2.9-3.5-8.8-9.3-8.5-13.5-6.8-5.4 2.7-7.4 8.1-5.5 15.3q0.1 0.1 0.1 0.2c4.6 14.6 16.1 8.8 18.8 3.6 1.3-2.7 1.7-5.8 0.9-9.4zm-5.6 1.3c1 4.3 0.3 6.8-2.4 8-5.9 1.9-7.8-9.2-6.3-12.3 1.3-2.5 5.9-4.2 8.2 2.6 0.2 0.5 0.4 1.2 0.5 1.7zm28 0.6q-0.1-0.2-0.1-0.4c-0.9-1.1-1.4-2.2-2.1-4.7q-1.5-5.1-3-10.2c-1.9-5.5-5.5-7-10.7-4.6-4.4 2.3-6.5 6.3-5.4 10.6q2.6-1.1 5.2-2.2c-0.9-3.6 2.8-4.7 4.1-4.1 1.1 0.6 1.6 2 1.7 2.5q0.2 0.7 0.4 1.3-1.1 0.5-2.3 1c-11.2 5.3-7.1 14.5-2.8 16 0.1 0 6.2 1.9 8.8-4.9 0.5 1 0.7 1.4 1.1 1.9q2.6-1.1 5.1-2.2zm-7.6-4.1c-0.2 1.2-0.9 2.9-2.9 3.8-2.1 0.8-3-0.7-3.3-1.6-0.3-1.8-0.4-3.8 3.1-5.4q1-0.4 1.9-0.8 0.6 2 1.2 4zm-234.4 36.3l0.3-13.2q-1.2-0.2-2.4-0.3l0.1 9-3.4-9.4q-1.2-0.1-2.3-0.3l5.5 14q1.1 0.1 2.2 0.2zm31.8 1.7q-1.5-6.7-2.8-13.6-1.4 0-2.7 0 0.9 4.9 2 9.7c-0.4 1.8-2.3 1.4-3 0.4-0.2-0.4-0.3-0.9-0.4-1.3q-1-4.4-1.8-8.8-1.3 0-2.6-0.1 0.9 4.5 1.8 9c1.6 6.3 5.6 5.5 6.5 3.7 0-0.1 0.1-0.2 0.2-0.3 0.1 0.4 0.2 0.9 0.3 1.3q1.3 0 2.5 0zm-47.4-9.4q-0.1-0.7-0.3-1.5c-0.3-1.7-1.4-6.9-4.9-7.5-2-0.1-2.8 2.2-2.1 6.3q0 0.2 0.1 0.3c1.6 7.8 6.2 8.7 7.4 6.7 0.2-0.4 0.3-0.6 0.4-0.9-0.5-0.7-1.1-1.6-1.5-2.2-0.7 2-2.5 1.3-3.5-0.7-0.3-0.6-0.5-1.2-0.6-1.5q2.5 0.5 5 1zm-2.5-2.9q-1.5-0.3-2.9-0.6c-0.4-3.7 1.5-2.3 1.6-2.2 0.8 0.6 1.1 2 1.2 2.5q0 0.2 0.1 0.3zm12 9.9q-0.9-4.4-1.7-8.8c-0.8-3.8-1.9-5.3-3.9-5.5-0.9 0.1-1.3 0.4-1.7 1.5-0.1-0.5-0.3-1.1-0.4-1.6q-1-0.2-2-0.4 1.1 6.9 2.6 13.6 1.1 0.2 2.2 0.4-1.1-4.8-2-9.6c0.5-1.9 2.1-0.8 2.4-0.2 0.3 0.5 0.5 1.2 0.5 1.5q0.8 4.4 1.8 8.7 1.1 0.2 2.2 0.4zm16.8-3.8q-0.2-0.7-0.3-1.5c-1-4.6-2.9-7-5.6-7.1-2.4 0.2-3.3 2.6-2.6 6.7q0 0.2 0.1 0.4c1.7 7.7 7 8.1 8.5 5.9 0.2-0.4 0.3-0.7 0.4-1-0.5-0.6-1.1-1.5-1.6-2.1-0.9 2.3-3.4 1.5-4.4-0.8q-0.2-0.5-0.3-0.9 2.8 0.2 5.8 0.4zm-2.9-2.6q-1.7-0.2-3.4-0.3c-0.4-3.8 1.8-2.6 2.2-2.2 0.7 0.6 1 1.7 1.1 2.2q0 0.1 0.1 0.3zm13.6 8.7q-1-4.4-1.8-8.8c-0.9-3.7-2.1-5.2-4.4-5.2-1 0.2-1.5 0.6-2 1.7-0.1-0.5-0.2-1.1-0.4-1.6q-1.1 0-2.3-0.1 1.2 6.8 2.7 13.6 1.3 0.1 2.6 0.1-1.1-4.7-2.1-9.6c0.6-2 2.4-1.1 2.9-0.3 0.2 0.5 0.3 1 0.4 1.4q0.9 4.3 1.9 8.7 1.2 0 2.5 0.1zm26.7-6.2c-0.1-0.5-0.3-1.1-0.4-1.7-1.7-5.5-4.8-6.1-6.6-6-3.7 0.6-3.5 4.7-3 7.1q0 0 0 0.1c2 8.2 7.7 7.9 9.4 5.3q1-1.8 0.6-4.8zm-2.9-0.3c0.6 3.2-0.5 3.7-1.3 3.8-3.2-0.1-4-6.9-2.7-8 0.8-0.6 3.1-0.7 4 4.2zm227.7-72.8q-0.4-1.1-0.8-2.2-2.1 1.3-4.3 2.5c-0.3 0.2-0.3 0.2-0.7 0.5l-0.1 0.4c-1 6.2-0.3 12.4-0.7 18.6 0 1 0 2.3 0 3-1.9-2.8-7.7-9.2-12.2-14.1-0.2-0.2-0.2-0.2-0.7-0.4l-0.3 0.1c-0.1 0-0.3 0-0.4 0.1-1.7 0.9-3.3 1.7-4.9 2.5q0.3 1.1 0.7 2.2c0.3 0.6 0.6 1 1.3 0.8q0.6-0.2 1.2-0.3c2.3 6.5 4.3 13.1 6.1 19.6q-0.7 0.6-1.3 1.1c-0.4 0.4-0.5 0.8-0.3 1.5q0.2 0.7 0.4 1.5 0.1 0.3 0.2 0.7 3.9-2 7.8-4-0.1-0.4-0.2-0.7-0.2-0.8-0.4-1.5c-0.4-1-0.4-1-2.9-0.2q-1.9-6.9-4.1-13.8c-0.3-0.9-0.5-1.5-0.9-2.3 3.2 3.7 7.6 8.6 10.7 12.3 0.4 0.4 0.8 0.8 1.6 0.4q0.2-0.1 0.4-0.2c0.8-0.5 1.4-0.9 1.8-20.3 0.3 1.1 0.4 1.3 0.7 2.2 1.5 4.7 2.9 9.3 4.2 13.9-2.1 1.7-2.1 1.7-1.9 2.8q0.2 0.7 0.4 1.4 0.1 0.4 0.2 0.8 3.7-2.1 7.1-4.1-0.1-0.4-0.2-0.8-0.2-0.7-0.4-1.4c-0.2-0.7-0.4-1-1.1-0.8q-0.6 0.2-1.2 0.3-2.7-9.8-6.1-19.5 0.5-0.6 1.1-1.1c0.3-0.3 0.5-0.7 0.2-1.5zm24.1-15.7c-0.4-1.4-1.7-2.8-2.8-1.8-1.7 1.6-0.3 5.8 1.5 5.9 1.4 0 1.9-2.3 1.3-4.1zm2.7 28.2q-0.1-0.4-0.2-0.8-0.2-0.7-0.4-1.4c-0.2-0.7-0.5-1-1-0.8q-0.5 0.2-1 0.3c-2.3-8-5-15.9-8-23.8q-2.1 1.5-4.3 2.9 0.4 1.1 0.8 2.2c0.2 0.4 0.4 1 1.1 0.7q0.6-0.2 1.1-0.3 3.7 10 6.6 20.2-0.7 0.7-1.1 1.1c-0.3 0.5-0.4 0.8-0.2 1.6q0.2 0.7 0.4 1.4 0.1 0.4 0.2 0.8 3.1-2.1 6-4.1zm-131.1 59.5q-0.1-0.6-0.3-1.2-0.5-1.7-1-3.5c-3.5 1.8-4 0.1-4.4-1.2q-1.6-5.9-3.2-11.8 1.8-0.5 3.6-1-0.7-2.3-1.3-4.6-1.8 0.5-3.5 1-0.8-3-1.6-5.9-2.8 0.8-5.5 1.5 0.7 3 1.5 5.9-1.5 0.4-3 0.8 0.6 2.3 1.3 4.6 1.5-0.4 3-0.8 1.7 6.4 3.4 12.8c1.4 3.9 4.5 7.8 11 3.4zm-129.7 7.3q-0.3-1.4-0.6-2.7c-1.6 0.3-1.9-0.3-2.2-1.3q-0.7-3.4-1.4-6.8 0.9 0 1.7 0-0.2-1.4-0.5-2.7-0.9 0-1.7 0-0.4-1.7-0.7-3.4-1.3 0-2.6 0.1 0.3 1.7 0.6 3.3-0.7 0-1.5 0 0.3 1.4 0.6 2.7 0.7 0 1.4 0 0.8 3.7 1.6 7.4c1.2 4.2 3.5 4.2 5.3 3.4zm-62.6-10.2c-0.2-1.7-0.9-3.9-2.5-5.1 1.6-1 1.2-8-3.6-9.5q-1.7-0.5-3.4-1 1.2 9.2 3.1 18.3 1.9 0.6 3.8 1.1c0.8 0.2 3.3 0.7 2.6-3.8zm-3.7-8.5c0.2 1.9-0.8 1.7-1.2 1.6q-0.7-0.2-1.5-0.4-0.4-2.3-0.7-4.6 0.7 0.2 1.4 0.4c0.6 0.2 1.7 0.5 2 3zm1.6 7.6c0.1 0.9 0 1.9-1.2 1.7q-0.8-0.3-1.7-0.5-0.5-2.5-0.9-4.9 0.9 0.2 1.8 0.5 1.6 0.5 2 3.2zm101.1-5.1q-0.6-2.7-1.2-5.4-10.6 1.2-20.7 1.9 0.5 2.7 1 5.4 3.8-0.3 7.7-0.6 2.7 12.8 6.1 25.3 0.1 0.6 0.3 1.3 2.7-0.2 5.3-0.5-0.2-0.7-0.3-1.3-3.4-12.5-6.1-25.3 3.9-0.3 7.9-0.8zm124.1-0.7q-0.2-0.7-0.3-1.3c-2.9-10.7-6-21.4-9.3-32.1q-2.7 1-5.5 1.9c3.3 10.7 6.3 21.4 9.2 32.1q0.2 0.6 0.4 1.3 2.7-0.9 5.5-1.9zm-268.5-18.6q-2.4-11.7-3.3-23.5-0.4-1-0.7-2 0.8 11.7 3.2 23.5 0.4 1 0.8 2zm7.1 10.5q-2.4-11.8-3.3-23.6-0.9-0.9-1.7-1.8 1 11.8 3.4 23.6 0.8 0.9 1.6 1.8zm12.7 9.6q-2.5-11.9-3.5-23.8-1.3-0.7-2.5-1.5 1 12 3.5 23.8 1.2 0.7 2.5 1.5zm10.6 4.9q-0.5-2.5-1-5-2.8-1.1-5.3-2.3c0.8-3.9 1.8-9 2.9-12.8q-0.3-1.9-0.4-3.8-4.5-1.7-8.4-3.8 0.2 2.6 0.5 5.2 2.3 1.2 4.7 2.2c-0.8 3.8-2 8.7-2.6 12.5q0.4 1.9 0.8 3.8 4.1 2.2 8.8 4zm-31.7-28.7q-1.5-7.5-2.4-15c-1.3-10.4-1.3-10.4-1.5-11.7q-0.1-0.1-0.1-0.2c0 0.3 0 0.3 0.1 1.7-0.1-0.9-0.3-3.2-0.4-4.9 0.3 3.6 0.8 8.4 1.1 12l-0.3-2.6q-0.1-0.8-0.1-1.5c0.1 0.5 0.1 0.5 0.7 5.1q0.9 7.5 2.4 15 0.2 1.1 0.5 2.1zm4.6 5.1c-0.9-5.7-2.3-8.8-3-10.5-1.8-4.2-1.2-6.2-1.2-6.2 0.5 0.2 1 1.8 1.3 4.4q0.7 1 1.4 1.9c-0.6-5-1.7-9-3-10.8-0.2-0.3-0.3-0.3-0.5-0.4-1 0.8-0.2 9.4 2.3 15.1 1.6 3.9 1.4 5.6 1.4 5.8q-0.1 0-0.1 0.1c-0.6-0.5-1.2-2.4-1.7-5.1q-0.5-0.9-1-1.9c0.9 5.4 2.6 11.2 3.9 11.8 0.3-0.1 0.8-0.4 0.2-4.2zm12.1 15.9q-1.6-7.6-2.6-15.3c-1-6.8-2-9.7-3.9-10.9-0.9-0.3-1.2 0.1-1.6 1.6-0.1-0.9-0.2-2-0.3-2.8q-1-0.8-1.8-1.6 0.9 11.9 3.4 23.7 0.9 0.8 1.9 1.7-1.7-8.3-2.7-16.7c0.1-0.7 0.3-2.4 1.5-0.8 0.8 1 1 2.7 1.3 4.4q0.9 7.6 2.5 15.1 1.1 0.9 2.3 1.6zm388.5-129.7c-0.5-1.3-3.8-3-3.8-3 0.6 2.3 1.4 5.4 2 7.6 1.3 0.8 2.3 1.5 3.5 2.6-0.2-1.1-0.7-3.8-1.7-7.2zm-407.5 83.3c0-0.4-0.1-3.7-0.6-4.8 0-0.1-0.1-0.1-0.1-0.1-0.5 0.4 0.1 6.8 0.6 6.9q0.2-0.2 0.1-2zm7.1 10.3c-0.1-1.4-0.4-3.9-1.2-4.7-0.9-0.6-0.8 2.7-0.4 4.7 0.4 1.7 1 2.4 1.3 2 0.1-0.1 0.3-0.6 0.3-2zm12.4 9.3c0-1.4-0.4-3.9-1.7-4.5-1.5-0.5-1.1 4-0.3 5.7 0.5 0.9 1.5 1.7 1.9 0.4q0.2-0.5 0.1-1.6zm378-148.9c0 0-4.8-7.9-5.6-8.7 0 0.2 0 0.2 0.2 0.6q0.6 1.2 1.1 2.4 0.4 0.5 0.8 1.1c0.2 0.3 0.2 0.3 0.3 0.4q0 0 0 0v-0.1q0 0 0-0.1 3.3 5.1 6.4 10.4 0.1 0.2 0.2 0.4v0.1c0.1 0.2 0.2 0.3 0.5 0.8q0.3 0.6 0.6 1.2-0.5-1.3-1.1-2.5c-0.6-1.2-1-1.9-3.4-5.9zm0.5 0.8c0.2 0.3 1.2 2.1 1.7 3q0.3 0.5 0.5 1-1.2-2.2-2.5-4.2-0.3-0.5-0.5-1-0.1-0.2-0.1-0.3c0 0 0.1 0.1 0.9 1.5zm-3.5-5.6c1.2 1.8 1.5 2.5 1.7 2.8q0.2 0.3 0.3 0.7-1.2-2-2.6-4-0.2-0.4-0.4-0.8-0.1-0.2-0.1-0.3c0 0 0.1 0 1.1 1.6zm-3.7 0.2c-1.6-2.3-1.9-2.2-2.1-2.2-0.1 0.1-0.1 0.3-0.1 0.4q0.1 0.5 0.1 1.1-0.1-0.1-0.1-0.1c-1.6-2.8-1.6-3.1-1.5-3.3 0 0 0.2 0 0.2 0.1q0-0.1 0-0.2c-1.1-1.5-2.5-3.4-3-3.6-0.1 0.1-0.1 0.2-0.1 0.3 0.7 1.8 3.8 7.1 7.2 11.4 0-1.9 0-1.9 0-2 0.8 0.5 1.5 3 1.7 5 0.1 0.3 0.3 0.8 0.5 1.1 0.5 0.3 0.8 0.4 1.3 0.6 0.6-1.3-1.7-5.3-4.1-8.6zm1.2-4.2l-1.9-2.8q0-0.2-0.1-0.3 0 0.1 0 0.1c0.3 0.4 2 2.9 2.1 3.1q0-0.1-0.1-0.1zm-377 141.6c0.1 0 0.2 0 0.3 0.1 0-1.4-0.1-3.3-0.1-4.7-4.9-0.7-6-5.3-4.2-9.1-0.3-0.7-0.7-1.8-1-2.5l-0.2 0.4c-0.1 0.2-4.1 12.8 5.2 15.8zm-6.7-14.3c0.4-5.2-0.1-8.9-1.4-10.3q-1-0.7-2.9-0.8c0 1.6-0.1 3.7-0.1 5.3 0.1-0.1 0.2-0.2 0.2-0.5 4.3-1.9 2.9 6 2.2 7.6-0.7 1.7-1.6 1.6-2 1.6 0 0.4 0.3 2.5 0.6 4.6 1.3-0.3 2.8-1.4 3.4-7.5zm388.2-103.4c-2.7-4.5-6.7-8.4-8.1-9.7q0 0.1 0 0.2c3.6 7.2 3.6 7.2 4.5 8 4.5 4.7 4.6 5.5 4.7 6.3 0.7 5.2-0.6 13.9-5.6 11.8-3.6-1.4-6.9-7.6-8.5-10.6-0.3 0-0.8 0.1-1.1 0.1 12.1 25.3 16.9 21.2 18.7 16.5 3.5-9.2-2.2-18.6-4.6-22.6zm-397.8 86.8q0.1-1.2 0.2-2.3c0.4-5.6 0.9-10.9 0.6-13.2 0-0.2 0-0.2-0.1-0.3-0.5 0.5-1 5.6-1.2 7.8q-0.1 0.2-0.1 0.5c-0.6 7.4-0.6 13.3-0.2 14.2 0.4-0.2 0.4-0.8 0.4-5.6-0.1 0.7-0.1 0.8-0.2 1-0.4-0.4-0.2-4.2 0-6.4q0.1 2.1 0.6 4.3zm-1.1 1.3q0-2 0.1-4.1c0-0.1 0.1-0.7 0.2-3.2q0.3-5.1 1-10.1-0.1 0.6-0.1 1.2 0.2-2 0.5-3.9 0-0.6 0.1-1.2 0.3-2.5 0.8-4.9 0-0.9 0.1-1.8-0.4 2.4-0.8 4.9 0.1-0.6 0.2-1.1-0.2 1.1-0.3 2.1l-0.3 2.2q0 0.3-0.1 0.7-0.2 1.9-0.4 3.8l-1 15.1v0.1q0 0.1 0 0.1c0 0 0 0.1 0 0.1zm17.8 11.6q0.1 0 0.2 0c0.1-1.4 0.2-3.2 0.3-4.6h-0.2c-2.6-0.6-5.1-3.2-5.1-3.2q-0.2 2.1-0.4 4.2c0.3 0.3 1.4 1.3 2 1.5q0 0 0 0c-0.1 0.2-0.5 0.6-1.1 1.4 0.3 0.9 0.8 2 1.1 2.8 1.3-2 2.6-2.2 3.2-2.1zm344.5-50.9c-3.5-7.2-3.5-7.2-17.1-12.5-0.1 0.3-0.1 0.7-0.2 0.9l2.4 5c1.6 21.2 10.8 27.7 15.2 23.1 1.9-2 4.4-6.8-0.3-16.5zm-1.7 2.4c0.2 1.8-0.3 4.4-2.4 6-3.3 2.1-5.5-1.6-5.6-1.8-1.3-2.2-1.5-5.5-1.2-9.8 8.7 1.7 9.2 5.6 9.2 5.6zm-332.5 60.5l0.3-4.2c-3.2-1.1-4.8-1.2-5.9-1.2 1.8-2.1 3.3-3.8 4-4.1 0.1-1.3 0.1-2.9 0.1-4.2h-0.4c-2.7-0.3-4.5-1.4-5.5-2-0.1 1.4-0.2 3.2-0.3 4.5 1 0.2 2 0.4 3 0.6-3.1 4.4-4.1 4.3-4.8 4.3 0 1.3 0 3 0 4.3 2.1-0.1 3-0.1 4.3 0-2.7 3.6-3.1 11 2.4 14.3 0.2-1.2 0.4-2.8 0.5-4.1-6.5-3.3-0.7-8.6-0.2-8.7 0.5-0.2 1.8 0.1 2.5 0.5zm-23.3-5.8l0.6-3.3c-1.4-8.5-1.4-8.5-1-13.3 0.6 0.8 1.1 1.3 1.6 1.7 0.2-1.3 0.3-3.1 0.4-4.4-1-0.4-1.5-1.3-1.5-1.4 0 0 0.4-4.4 0.7-4.6 0.1-0.1 0.1-0.1-0.7-2.1l-0.1 0.6c-0.8 6-1.2 10.9-1.4 14-0.4-1-0.5-1-0.7-1.2-1.3 0.3-1 10.8 0.4 11.8 0.2 0 0.5 0 0.7-4 0.2 1.4 0.7 4.4 1 6.2zm-1.7-7.5c0 0.9-0.2 1.3-0.3 1.1q-0.1 0-0.1-0.1c-0.6-1.4-0.4-4.1 0-3.9 0.2 0.1 0.5 1.2 0.5 1.3 0 0-0.1 1.3-0.1 1.6zm7.1-5.5l0.8-4.1c-0.8-2-1.8-3.7-2.5-4.7-0.2 1.1-0.5 2.6-0.7 3.8 0.2 0.4 1.4 2.4 2.4 5zm386.7-113l-1.4-2.2q0.2 0.4 0.4 0.7 0.4 0.6 0.8 1.1 0.1 0.3 0.3 0.5-0.1 0-0.1 0v-0.1q0 0 0 0zm-395.8 101.4q-0.2-1.3-0.3-2.5c0.1-1.4 0.4-3.1 0.5-3.2 0.1 0.2 0.2 1.3-0.2 5.2q0 0.3 0 0.5zm1.9-22.9c0.2-1.5 0.6-3.5 0.7-4.1l-1 5.4v-0.1q0.2-0.6 0.3-1.2zm117.8 63.6c-0.5-5.6-3.5-23.9-18-23.1-19.2 2.2-18.9 38.7-3.8 50 7.4 5.6 19.4 4.3 24.2-5.8-1-1.3-2.3-3.1-3.3-4.4-1.1-1.4-2.2-1.4-3.7-0.1-6.3 5.8-16.6 7.5-19.4-11.4q10.9 0.1 22.4-0.6c1.8-0.2 2-1.2 1.6-4.6zm-24.4-2.3c1-15.3 10.1-12.6 12.8-9.7 1.8 2 2.9 5.1 3.3 9.4q-8.2 0.3-16.1 0.3z"/>
							<path id="&lt;Compound Path&gt;" fill-rule="evenodd" class="s2" d="m400.1 366c2.2-6.3 0.5-9.3-4-7.1-0.6 0.3-1.3 0.7-1.9 1-9.5 6.8-11.9 19.4-8.2 20.1 3.3 0.7 11-5.4 14.1-14zm-4.5 2.4c-0.3 1.1-1.7 4.9-4.3 6.6-2.9 1.5-1.9-2.9-1.3-4.8 1.8-5.7 5.2-7.9 6-6.2 0.4 0.7 0.2 2.4-0.4 4.4zm-196.6 49.2v-0.3l-3.1-2.2c-27.8 0.8-51.9-2.2-69.2-9.1l0.2 0.3 3.4 2.6q1.3 0.5 2.7 1c0.6 0.5 3.5 2.8 5 4.1-0.1-0.1-0.1-0.1-1.1-0.4 0.4 1.3 8.6 6.3 18.8 11.3q0.1 0.1 0.2 0.1l-2.5-1.9c-8-3.7-8.4-4.1-9.7-5.5 9.1 4.5 9.1 4.5 12.4 6.7l2.9 1.1-0.1-0.1c-5.2-3.7-12.1-8.7-17-12.7q5.2 1.3 11 2.3 1.2 1.1 2.4 2.2c-4.9-1.7-5.6-1.6-6.3-1.2-0.4 2.2 12.2 9.4 15.2 8.6 1.2 0.7 2.8 1.7 4 2.5l3.1 0.9v-0.1c-4.9-3.6-11.3-8.5-15.9-12.5q2 0.3 4.1 0.6c4.3 3.7 10.2 8.6 14.8 12l3.2 0.9v-0.1c-4.7-3.6-10.9-8.5-15.3-12.5q2.9 0.4 5.9 0.6c0.8 0.7 3.4 3 5 4.6-1.2 0-1.3 0.1-1.7 0.2 0.1 1.5 6.8 4.4 8 4.3 0-0.1 0.1-0.3 0.1-0.4-0.7-1.1-0.7-1.1-8.7-8.5q2.5 0.2 5 0.4c3.9 3.6 9.2 8.5 13.4 11.8l3.4 0.7v-0.1c-4.3-3.5-9.9-8.4-13.9-12.3q6.8 0.3 13.9 0.2 1 1.1 2 2.2c-6.4-0.1-9.6-0.1-6.9 2.9 3 3.5 13 7.5 14 7.4l-1.2-2c-10.2-2.9-9.6-4.7-8.9-5.3 0.5-0.5 2.4-0.6 3.8-0.6q0.8 0 1.5 0l7.8 7.3 3.3 0.5 0.1-0.1c-3.8-3.6-8.9-8.5-12.4-12.3q1.6-0.1 3.3-0.1zm-53.4-0.7c-0.5 0-1-0.1-1.9-0.4-1.3-0.4-2.3-0.9-2.3-0.9-2.3-1.5-4.3-3.4-6.4-5q2.2 0.7 4.6 1.4 3 2.5 6 4.9zm13.7 3.5c2 1.6 0.7 1.8 0.5 1.8-0.4 0-0.7 0-0.9-0.1-3.1-0.6-5.9-3.1-5.1-3.6 0.6-0.3 2.7 0.2 4 0.6q0.8 0.7 1.5 1.3zm280.4-84.8l3.2-6.3q-1.6 3.2-3.2 6.3zm13.4-30.3l2.2-6.6 0.1-0.2c0.2-0.6 0.2-0.6 0.2-0.7-0.1 0.1-0.1 0.2-0.5 1.1q-0.3 0.9-0.7 1.8c-0.5 0.9-1 1.7-1.4 2.7-0.6 1.6-1.3 4-1.9 5.7q0.3-0.4 1.2-2.1 0.4-1 0.8-2c0.1-0.2 0.2-0.5 0.4-0.7-0.1 0.2-0.1 0.3-0.4 1zm-185 121.8c-1.2-2.2-2.9-5.1-4-7.3l-2.7 0.3q-4.3-7.6-8.8-17.2-9.5 1.7-18.8 3 1.7 3.1 3.4 6c2.9 5.1 3.8 7.8 3.6 11.4-0.6 0.1-1.4 0.3-2 0.4 1.8 2.1 4.1 5 6 7q2.1-0.3 4.2-0.5l-3-4.1q7.3-1.1 14.8-2.4l3 4.1q2.2-0.3 4.3-0.7zm-12.7-6q-4.4 0.7-8.7 1.3c0.1-1.8-0.1-4.8-3.1-10.3q-0.8-1.4-1.6-2.9 3-0.5 6.1-1 3.7 7.1 7.3 12.9zm53.4-15.4c-0.6-8.3-11.1-8.5-15.7-3.6-0.8 0.8-1.1 1.7-1.4 2.2q-0.1 0.1-0.2 0.1c-0.4-3.6 1.8-5.6 2-5.8 2.9-2.6 6.8-3.3 10.1-5-0.2-1.3-0.5-3.1-0.7-4.5l-0.6 0.3c-3.5 1.7-7.3 2.6-10.6 4.9-3.3 2.2-4.5 5.3-4.6 5.7-1.9 5.1 0.2 12.8 5.8 15 5.8 2.4 16.5-1.8 15.9-9.3zm-6.4 1.5q0.6 3.8-3 4.9c-4.4 1-6.6-4-4.8-6.9 1.5-2.6 6.5-3.2 7.7 1.6 0 0.1 0.1 0.3 0.1 0.4zm-78.2 8.7l0.1-0.4-2.9-2q-1.5 0.1-3 0.3c-9.2-6.9-11.1-8.3-15.4-7.9-1.4 0.1-2.2 0.3-3.3 0.7 1.1 0.9 2.6 2.2 3.8 3.2q0 0 0 0c5.5-1.8 7.1-0.4 12.7 4.2q-6.4 0.5-12.7 0.8v0.4l3 2.1q5.4-0.3 10.8-0.8 0.7 0.9 1.3 1.8c-5.6 0.4-10.1 0.8-6.5 4.1 1.4 1.3 3.6 2.2 4.9 2.8 0.8 5.4 16.9 7.2 18.2 6.9l-0.5-2c-16.4 0.4-12.9-4.6-12.9-4.6 1.2-1.1 5.4-1.8 5.3-0.3 0 0.7-1.3 1.5-2 2 1.3 0.5 2.9 1.1 4.2 1.6 4.8-3.1-4.6-6.3-4.8-6.4-0.2 0-5-1.2-7.3 1.7-1.2-0.6-3-2.1-0.6-2.9 1.1-0.4 4.3-0.6 6.8-0.8 0-0.1 0.1-0.2 0.1-0.3l-2.9-3.9q1.8-0.1 3.6-0.3zm24.6-20c0.3-0.1 0.7-0.2 1-0.3-0.8-1.5-1.7-3.3-2.5-4.8-17.8 6.4-22.4 1.9-19.8-3.1 0-0.2 0.2-0.4 0.3-0.6-1.7-0.4-3.9-0.8-5.5-1.2l-0.4 0.8c-0.1 0.2-5.6 18.6 26.9 9.2zm-148.8-10.8q-0.9-1.1-1.8-2.1c-4.1-4.9-8.9-10.4-12.1-12.7-0.5-0.3-0.5-0.3-0.7-0.3-0.1 0.9 2.9 4.6 5.4 7.6q0.2 0.2 0.5 0.5c6.2 7 12 12.4 13.4 12.8q0 0 0.1-0.1c-0.3-0.8-0.3-0.8-4.5-4.7 0.3 0.4 0.4 0.5 0.5 0.8q0 0-0.1 0.1c-0.9-0.3-3.8-3.2-6.3-5.9q2.6 2.1 5.6 4zm11.2 9.8c-8.1-8.2-15.5-17.3-21.9-27.3q-1.5-0.8-2.9-1.6c6.6 10 14 19.2 22.1 27.4q1.3 0.7 2.7 1.5zm19.4 1.2c-0.5-0.7-1.3-1.6-1.8-2.3-6.3-7.5-10.9-9.8-13.7-10.4-4.5-0.7-1.1 4.4 0 6 0.5 0.7 1.1 1.4 1.5 2q0.1 0.1 0.2 0.2c8.9 10.4 16.6 12.5 16.7 10 0.1-1.6-2.2-4.6-2.9-5.5zm-4.3-1.5c1.1 1.4 3.5 4.4 1.6 4.2-0.1 0-0.2-0.1-0.3-0.1-4.3-1.3-11.4-10.5-9.8-11.1 0.3-0.1 2.6-0.6 8.5 7zm35.1 12.3q-4.3-5.2-8.4-11.1c-3.8-5.4-6.9-7.5-11-7.7-1.8 0.2-2.3 0.8-2.3 2.4-4.3-4-8.9-4.8-9.1-1.7-0.5-0.6-1.1-1.5-1.6-2.2q-1.9-0.3-3.8-0.7 6.6 9.8 14.2 18.2 1.9 0.3 3.9 0.6-5.3-5.8-10.1-12.4c-0.7-2.7 3-0.8 3.1-0.8 1.1 0.7 2 1.8 2.7 2.8q4.3 5.9 9 11.2 2 0.3 4.1 0.5c-2.9-3.6-6.8-8.3-9.5-12-1-3.3 3.1-1.3 3.2-1.3 1.2 0.7 2.2 2 2.7 2.7q4.1 5.9 8.6 11.1 2.1 0.2 4.3 0.4zm56-16.3c-2.2-6.2-7.5-9.3-14.1-8.5-1.1 0.2-4.3 0.8-13 4 1.4 1.7 3.4 3.9 4.9 5.6 0.2-0.2 0.5-0.5 0.3-0.9 6.8-3.8 10.4-3.9 11.9-3.7 1.9 0.4 4.9 3.4 4.2 6.5-0.9 3.6-6 5.5-7.9 6.2 2.1 1.2 4.1 2.4 5.7 3.6 5.4-2.5 10.6-5.9 8-12.8zm-145.3-36.6l7.7 10.7-7-9.7q-0.4-0.5-0.7-1zm20.2 25.5c-4.7-5.7-10.8-13.4-15.1-19.5q-1-1-1.9-2c3.1 4.3 7.2 10.1 10.6 14.2l0.4 0.5c0 0 6 6.8 6 6.8zm229-6.2q-1.4-8.5-3.4-17.9-2.6 0.8-5.3 1.7 2.1 9.4 3.7 17.9 2.5-0.8 5-1.7zm40-14.5q-0.4-9.4-1.7-19.6-2.4 1-4.8 2.1 1.3 10.2 1.9 19.5c0 2-0.9 3-3.5 3.6q0.1 1.9 0.2 3.6c3.9-0.8 8.1-3.6 7.9-9.2zm-8.3-5.2q-0.1-1-0.2-2c-1.1-7.8-6.1-7.4-10.1-5.7-5 2.5-7.5 7.2-6.8 12.9q0 0.2 0 0.4c1.9 10 12.8 5.7 16.4 0.6 0.3-0.6 0.6-1.1 0.8-1.4-0.8-0.5-1.9-1.2-2.6-1.7-2.5 4.3-7.9 6-9.3 1.7q6.1-2.3 11.8-4.8zm-5.2-1.3q-3.4 1.4-6.9 2.8c0-2.6 0.9-3.9 1.7-4.6 1.1-0.8 3.2-1.7 4.4-0.5 0.5 0.6 0.7 1.3 0.8 1.9q0 0.2 0 0.4zm41.3-15.8q0-1.1-0.1-2.1c-0.4-8.2-4.6-7.7-8-5.8-4.3 2.7-6.7 7.7-6.5 13.6q0.1 0.2 0.1 0.5c0.9 10.2 9.1 5.5 12 2 1.2-1.4 1.8-2.6 2.2-3.3-0.6-0.5-1.4-1.2-2-1.7-2.3 4.5-6.5 6-7.6 2.8 0-0.3-0.1-0.6-0.1-0.8q5.1-2.6 10-5.2zm-4.2-1.4q-2.9 1.6-6 3.1c0.5-5.8 4.2-6.6 5.3-5.6 0.6 0.6 0.6 1.6 0.7 2.1q0 0.2 0 0.4zm-290.3 44.9q-1.7-1.1-3.2-2.4-2.2-2.6-2.1-3c0.1 0 0.8 0.1 5 5q0.1 0.2 0.3 0.4zm25.8 18.9q1.8 0.6 3.6 1.3c-4.2-3.6-9.8-8.3-13.9-12.1l-1.6-6.4q-2.1-0.7-4.1-1.4l1.4 4.6 0.4 1q-6.1-7.4-11.3-15.7-1.6-0.7-3.2-1.4c6.5 10 13.7 19.1 21.7 27.2q1.4 0.6 2.9 1.3-2.5-2.6-5-5.4l-0.4-1.2zm214.8-30.6q-0.2-1.8-0.5-3.5c-3.3 1.7-3.5 0.6-3.7-0.5q-0.7-4.4-1.5-9.1 1.7-0.6 3.3-1.2-0.3-1.8-0.6-3.7-1.7 0.6-3.4 1.2-0.4-2.3-0.9-4.7-2.6 1-5.3 1.9 0.5 2.4 1 4.7-1.5 0.5-2.9 1 0.3 1.9 0.7 3.7 1.4-0.5 2.9-1 0.9 5 1.7 9.7c1.1 4.3 4.2 4.7 9.2 1.5zm38-16.1q0-1.8-0.1-3.7c-2.9 1.9-3 0.8-3.1-0.4q-0.2-4.6-0.6-9.4 1.4-0.7 2.9-1.4-0.2-1.9-0.4-3.8-1.4 0.7-2.9 1.4-0.2-2.4-0.5-4.9-2.4 1.1-4.7 2.2 0.3 2.4 0.5 4.8-1.2 0.6-2.5 1.2 0.2 1.9 0.4 3.8 1.3-0.6 2.5-1.2 0.6 5.2 0.9 10.2c0.6 4.3 3.2 4.8 7.6 1.2zm-133.9 24.1c0.2-0.1 0.5-0.2 0.8-0.3-0.7-1.7-1.7-3.9-2.4-5.6l-0.9 0.4c-8.6 2.9-20 4-20.4 4 0.2 0.5 0.7 1.7 2.2 5.2 1.5-0.2 6.1-0.8 8.6-1.5q0 0 0 0c-0.4 0.4-1.5 1.4-2.8 3.1 1.8 0.5 4.1 1 5.8 1.5 3.2-4.1 7.1-6.1 9.1-6.8zm65.6 2.3c2.3-16 2.6-17.7 3.7-27.3q-3.1 1-6.2 2c-0.5 6.1-1.1 14.3-1.6 20.4-3.2-5-7.5-11.7-10.6-16.8q-3.1 0.9-6.2 1.7c9.4 13.3 9.4 13.3 15.4 21.6q2.8-0.8 5.5-1.6zm-26.8-2.8l-1.4-5c-10.3 3-14.4 4.7-17.9 6.2 7.1-7.9 8.4-9.3 9.9-10-0.8-1.4-1.9-3.3-2.8-4.7l-1.3 0.6c-8.3 3.2-14.9 4.5-18.4 5.2 0.7 1.6 1.6 3.8 2.3 5.4 0.4-0.1 9.6-3.4 9.7-3.4-6.3 8.8-10.3 10.4-12.2 11.1 0.8 1.4 1.8 3.3 2.6 4.7 6.2-2.8 8.6-3.9 13.4-5.7-6.6 7.7-2.8 13.8 8.2 13 1.8-0.1 3.5-0.5 4.7-0.7 0-1.5 0.1-3.5 0.1-4.9-4 0.8-14.6 3.2-8.7-5.1 1.9-2.8 4-5.1 11.8-6.7zm-83.2 26.9l0.6-4.5c-6.4-2.7-10.5-4-12-4.4-0.4-0.1-1.2-0.1-1.6-0.4 0 0-2.1-3-4.1-6.6 3.8-0.2 6.6-0.6 9.6-1.3-0.9-1.6-2.1-3.6-3-5.2-3 0.8-6.1 1.4-9.2 1.6-0.9-1.9-2-4-2.8-5.6 0.6-0.3 0.6-0.4 0.5-0.8-1.9-0.1-4.6-0.2-6.5-0.3l0.3 0.8c4 7.9 8.5 14.9 9.8 16.7-10.8-0.7-7.5 5-5.5 7.1 4.6 4.7 15.5 6.2 15.4 2 0-1.3-0.8-2.6-1.3-3.4 3.5 1.3 6.6 2.7 9.8 4.3zm-14.7-4.2c0.2 0.4 0.7 1.7-1.3 1.8-4.4 0-5.8-2.4-4.8-3.3 0.8-0.7 3.2-0.6 5-0.1 0 0 0.9 1.2 1.1 1.6zm179-64.2c0-0.2-0.2-3.3-3.4-1.8-2.8 1.6-2.6 5-0.8 5.6 1.6 0.5 4.4-1.2 4.2-3.8zm-42.6 19.1l4-7.4q-2.9 1.1-5.9 2l-2.4 6.8q2.2-0.7 4.3-1.4zm-109.9 26.9l-0.9-5.6c-4.3-0.7-9.3-1-14.9-0.8 0.3 1.5 0.6 3.7 0.9 5.2 2.5 0 8.9 0.1 14.9 1.2zm255-106.3l1.6-9.6q-0.1 0.4-0.2 0.7c1.7-12.6 2.1-25.6 1.1-38.7q-0.8 3.4-2.2 7 0.3 2.8 0.4 5.6c0.1 1.5 0.2 1.6 0.3 2 0.3-0.1 0.3-0.1 0.7-0.7 0.4 9.7-0.1 19.4-1.4 29-1.1 4.3-1.1 4.3-1.4 6.2q-0.4 2.6-0.9 5.3 1.3-3.5 2-6.8zm-5.7-6.9c0.4-12.1-2.3-18.1-6.3-14.4-0.4 0.4-0.8 0.9-1.2 1.4-8.6 12-9.5 48.9-3.7 48.4 2-0.1 10.4-10.6 9.2-19.3 0-0.1-0.1-0.3-0.2-0.4-0.2 0.1-0.4 0.2-1 1.9-0.8 2-3.1 8.2-5.2 8.4-2.4 0.3-1.9-9.4-1.9-9.5q5.5-5.8 9.5-11.5c0.4-0.7 0.7-1.5 0.8-5zm-10.1 9.8c0.1-2.5 0.5-8.2 1.9-12 0.6-1.5 2.7-5.5 4.1-3.7 0.6 0.6 1.3 2.4 1.3 7.1q-3.3 4.3-7.3 8.6zm19.6-41.1c-0.2-5.6-0.2-13-0.6-18.6v0.1q0 0.1 0 0.1 0.1 1.3 0 2.6 0 1.2-0.1 2.5 0.2 2.8 0.3 5.6c0.1 1.5 0.1 1.8 0.2 2.1 0 0 0.1-0.1 0.1-0.7 0.1 2 0.1 4.1 0.1 6.3zm-345.6 128.1q-1.1-2.1-2-4.3-3.6-0.5-7-1.2c0.4-3.6 0.9-8.4 1.4-12q-0.6-1.7-1.2-3.4-5.9-0.9-11.4-2.1 0.8 2.4 1.7 4.7 3.1 0.7 6.4 1.3c-0.4 3.5-0.9 8.1-1.1 11.7q0.7 1.6 1.5 3.2 5.6 1.2 11.7 2.1zm14.4 1.7q-4.6-9.9-8.3-20.9-2.2-0.2-4.3-0.4 3.8 11 8.4 20.9 2 0.2 4.2 0.4zm65.5-1.4c-0.7-6.4-1.7-15-2.2-21.5q-2.6 0.3-5 0.6l1.9 13.8-8-13.2q-1.8 0.2-3.6 0.3l1.1 13.8-7.1-13.3q-2.4 0.1-4.8 0.3c3.6 6.2 8.4 14.5 12.2 20.6q2.1-0.2 4.1-0.3l-1.1-13.2 8.2 12.5q2.1-0.2 4.3-0.4zm12.8-1.5q-3.6-10-6.9-21-2.7 0.4-5.3 0.7 3.4 11 7 20.9 2.6-0.3 5.2-0.6zm-118.7-11.9q-0.5-1.2-1-2.3c-1.2-2.7-4.8-11-9.9-12.6-3-0.5-3.2 3-0.5 9.3q0.1 0.3 0.2 0.5c5.4 11.7 12.2 14.2 13.2 11.4 0.3-1 0.3-1-2.9-4.7-0.2 2.8-2.9 1-4.3-0.6-1.3-1.4-2-2.8-2.4-3.6q3.6 1.4 7.6 2.6zm-4.8-4.9q-2.3-0.7-4.4-1.5c-1-3-0.8-4.2 0.7-3.5q1.8 0.8 3.5 4.6 0.1 0.2 0.2 0.4zm11.1 0.1l-2-5.5c-0.8-0.5-1.1-0.5-1.7-0.6-1 0.1-1.3 0.7-1.4 2.4-0.3-0.8-0.7-1.9-1-2.7q-1.7-0.4-3.3-0.9 4 11 8.9 21 1.7 0.5 3.4 0.9-3.2-6.5-6-13.5c-0.1-2 1-1.9 3.1-1.1zm41.8 7.5q2.1 0.1 4.2 0.1c-1.3-3.3-4.4-8.7-10.8-8.7-4.1 0.6-5 4.2-2.7 10.5q0 0.1 0.1 0.3c5.4 12.7 14.6 12.2 16 8.7 0.8-1.9 0-4.2-0.3-4.9q-2.1-0.1-4.2-0.1c1.2 3.4-1.8 3.1-3.1 2.5-2.1-1.1-3.3-4.1-4-5.7q-0.1-0.3-0.2-0.6c-2.9-7.8 1.5-5.9 2-5.7 0.9 0.4 2.1 1.4 3 3.6zm130.9-12.2c-0.2-0.8-0.5-1.8-0.7-2.6-3.4-8.6-9.8-8.3-13.3-7.3-7.5 2.5-6.9 9.2-5.9 13q0.1 0.2 0.1 0.3c4.2 12.7 16.1 9.5 19 3.8 0.7-1.4 1.5-3.8 0.8-7.2zm-5.7 0.7c1.2 4.9-0.8 6.2-2.6 6.7-5.9 1.1-7.5-8.7-5.9-11.3 1.3-2 6.5-3.8 8.5 4.6zm40.8-1.2q-1.6-6.6-3.3-13.5c-1.7-6-4.6-7.7-9.7-5.8-2.4 1.2-3.4 2.4-4.4 4.9-3.8-4-9.4-1.7-11.6 2.8-0.3-0.7-0.6-1.7-0.8-2.4q-2.6 0.7-5.2 1.4 3 11.1 5.8 21.2 2.7-0.7 5.4-1.5-1.9-7.2-4-14.8c1-3.4 5-4.2 6.3-1.9 0.4 0.5 0.5 1 0.7 1.6q1.8 6.8 3.5 13.3 2.7-0.8 5.4-1.6c-1.1-4.3-2.6-10.1-3.7-14.4 0.7-4.1 4.8-4.6 6-2.8 0.5 0.6 0.7 1.4 0.8 1.8q1.8 6.9 3.3 13.4 2.8-0.8 5.5-1.7zm33-12q-1.3-6.6-2.9-13.5c-1.5-6.1-4.3-7.7-9.3-5.5-2.4 1.4-3.4 2.6-4.4 5.3-3.7-3.8-9.3-1.2-11.5 3.6-0.2-0.7-0.5-1.7-0.8-2.4q-2.6 0.9-5.2 1.7 2.9 11.2 5.3 21.4 2.7-0.9 5.4-1.9-1.6-7.2-3.5-14.9c1-3.6 5-4.6 6.2-2.3 0.3 0.5 0.5 1 0.6 1.5q1.6 6.9 3.1 13.5 2.7-1 5.4-2c-1-4.4-2.3-10.2-3.3-14.6 0.7-4.2 4.8-4.9 6-3.2 0.4 0.6 0.6 1.4 0.7 1.9q1.6 6.9 2.9 13.5 2.7-1 5.3-2.1zm18.7-17.4q-0.2-1.2-0.5-2.4c-2.1-9.1-7.3-8.8-11.3-7-5 2.8-7.1 8.2-5.8 14.9q0.1 0.3 0.1 0.5c3 11.8 13.8 7.2 17.1 1.7 0.5-0.9 0.8-1.5 1-2.2-0.9-0.6-2.1-1.4-3-2-2.2 5.2-7.5 6.4-9.4 2.2 0-0.2-0.1-0.3-0.1-0.5q6.1-2.6 11.9-5.2zm-5.7-1.8q-3.4 1.6-7 3.1c-0.5-6.3 4-7.3 5.6-6 0.9 0.7 1.2 1.9 1.3 2.5q0.1 0.2 0.1 0.4zm24.9 2.1q-1-6.8-2.4-14c-1.4-5.9-3.8-7.5-8-5.1-1.8 1.3-2.7 2.5-3.6 5-0.2-0.7-0.5-1.7-0.7-2.5q-2.3 1.1-4.6 2.2 2.6 11.2 4.3 21.7 2.4-1.2 4.8-2.3-1.2-7.4-2.8-15.2c1-4.1 4.4-4.8 5.4-3.2 0.4 0.6 0.5 1.4 0.6 1.8q1.5 7.1 2.5 13.9 2.3-1.2 4.5-2.3zm60.1-62.9q-0.5-2.8-1-5.6-5.3 5.2-11.6 10.4 0.5 2.8 1.1 5.5c0.5 2.4 0.6 2.3 3.5 1.3 0 21.7 0 22.1-1.8 36.6q-0.4 3.4-0.8 6.7c-1.2-13.2-8.5-30.7-12-39.1-1-1.9-1.9-1.9-3-1.2q-1.1 0.8-2.2 1.5c-1.5 1.3-1.8 3.2-1.9 4.6-0.5 23.6-0.5 24-3.2 43.8-0.5 2.5-0.8 5.4-1 6.9-1.5-10.5-9-28.6-11.3-33.9 3-3 3.3-3.3 2.9-5.8q-0.5-2.8-1.1-5.5-8.4 5-17.7 9.9 0.6 2.8 1.2 5.5c0.6 2.4 1.1 2.3 4.8 1.3 8.1 16.6 11.4 23.5 16.8 45.9q3.5-2.1 6.8-4.2c3-13.3 6.2-27.2 7.5-47.5 0.1-2.1 0.2-2.4 0.2-4.4 5.5 17.3 8.3 26 9.4 40q2.8-2.1 5.4-4.3c6-26.9 6.8-34.5 7.1-62.4 2.1-3 2.4-3.4 1.9-6zm-387.9 65.7l-3.5-9.4q-0.3-0.7-0.6-1.5l2 5.6c0 0 2.1 5.3 2.1 5.3zm11.4 23.3q-0.7-1.4-1.4-2.9c-0.6-1-0.6-1-1.8-3.2q-5-10.1-8.7-21-1.1-1.7-2-3.4 0.5 1.6 1.1 3.1c0.6 1.7 0.8 2 1.5 3.4q2.6 7.1 5.8 13.8c0.4 0.9 0.4 0.9 2.5 5.2q-0.3-0.6-0.6-1.3c0.4 0.7 0.8 1.5 1.1 2.2 0.6 1 0.7 1.2 0.9 1.6q0.8 1.2 1.6 2.5zm400.1-126c-0.6-3.7-1.4-6.1-1.9-5.6-0.1 0.1-0.2 0.5-0.2 0.6-0.7 3.6 1 15.7 2.2 15.3 0.7-0.2 0.6-5.6-0.1-10.3zm-3.4 70.1q0.5-2.6 0.9-5.2c0.2-1.2 0.2-1.3 0.2-1.9-0.3 0.1-0.3 0.1-0.8 0.7 2.5-19.2 1.9-39.4-2.4-60q-1.8 3.7-4.2 7.4 0.6 2.8 1.1 5.6c0.2 1.2 0.3 1.3 0.6 2 0.2 0 0.4 0 0.5 0 0.6-0.4 0.6-0.4 1.3-1 2.7 17.3 2.9 34.2 0.8 50.4-1.8 3.9-1.8 3.9-2.1 6.2q-0.4 2.6-0.9 5.1 3.1-4.7 5-9.3zm-395.8 49.6c-1.9-4.6-5.6-12.9-8.5-15.7-0.6-0.5-1.2-0.8-1.1 0.4 0.3 5.9 12.2 28.8 14.2 27.2 0.7-0.5 0.3-1.1-1.7-4.3-0.5-0.8-0.6-0.9-0.8-1-0.1 0.2-0.2 0.4-0.4 0.5-0.3 0-2-0.9-6.2-10.1q2.1 2.5 4.9 4.8 0.1 0.1 0.2 0.1c0.1-0.2 0.1-0.2-0.6-1.9zm-6.1-6.8q-1.7-4.5-1-4.4c0.1 0 1.4 0.4 4.5 8.1q-1.9-1.8-3.5-3.7zm28 29.9c-4.6-9-8.5-18.6-11.8-28.8q-1.5-0.6-2.9-1.3 2 6.2 4.3 12.1-2.8-1.4-5.3-2.8-2.3-6-4.3-12.2-1.3-0.7-2.6-1.5c3.3 10.2 7.3 19.8 12 28.9q1.2 0.8 2.5 1.5-3-5.8-5.6-11.9 2.5 1.4 5.2 2.8 2.6 6.1 5.6 11.9 1.4 0.7 2.9 1.3zm41.2 10.2c-4.3-9.4-8.2-19.5-11.4-30.3q-2.1-0.2-4.1-0.5c3.2 10.8 7.1 20.9 11.5 30.3q2 0.3 4 0.5zm77.9-28.5c-0.1-0.4-0.9-3.6-4.3-3-3.1 0.8-1.9 4.6 0 5.7 1.9 1.1 4.9 0.2 4.3-2.7zm-80 3c-0.1-0.4-1-3.5-3.7-3.7-2.4 0.2-1.2 4 0.5 5.4 1.3 1.2 3.4 1.3 3.3-0.8 0-0.2 0-0.6-0.1-0.9zm44.5 27.1q-2.6-6.4-5-13.2c-4.8-11.4-11.2-8-12.3-5.8 0 0.2-0.1 0.4-0.2 0.6q-2-5.7-3.8-11.7-2.3 0-4.6-0.1c3.2 10.8 6.8 20.9 10.9 30.3q2.3 0 4.6 0-3.1-7-5.8-14.6c0.6-2.9 4.1-2.3 5.5-0.3 0.5 0.6 0.8 1.4 0.9 1.9q2.4 6.7 5.1 13 2.3-0.1 4.7-0.1zm53.5-5.1q-4.9-14.2-9.5-30.4-2.7 0.4-5.4 0.8 4.7 16.2 9.7 30.3 2.6-0.3 5.2-0.7zm9.9-1.7q-4.7-14.1-9.3-30.4-2.7 0.5-5.4 1 4.6 16.2 9.4 30.3 2.7-0.4 5.3-0.9zm16.8-3.2q3.1-0.6 6.2-1.3l-11.6-10.3 4.8-10.6q-3.3 0.7-6.6 1.4l-3.3 7.5-0.6 1.7q-2.6-8.4-5.1-17.4-2.7 0.5-5.4 1 4.5 16.3 9.2 30.5 2.7-0.5 5.3-1.1-0.9-3-1.9-6.2l1.3-2.3zm188.7-151.5q-0.4-1.1-0.8-2.1-0.2 0.2-0.4 0.4-0.6 0.7-1.2 1.5-0.8 0.9-1.6 1.8 0.3 1 0.7 2.1c0.4 1 0.5 0.9 1.3 0.5 0.4 2.5 0.9 5.8 1.3 8.2 0.1 0.7 0.2 1.6 0.4 2.4-0.5-1.2-0.5-1.2-4.4-7.8 0.5-0.8 0.6-1 0.3-2.1q-0.4-1-0.8-2.1-0.8 0.9-1.6 1.7-0.8 0.8-1.6 1.6-0.2 0.2-0.4 0.4 0.3 1.1 0.7 2.2c0.4 1 0.4 0.9 1.6 0.4 2 3.4 4.7 8 6.7 11.5l0.6 9.1q0.7-0.7 1.3-1.4c1.2-1.4-2.5-25.5-2.5-25.8 0.7-1.4 0.7-1.5 0.4-2.5zm-21.3 41.3q-0.1-0.4-0.2-0.7-0.2-0.8-0.4-1.5c-0.2-0.6-0.4-1-0.9-0.8q-0.5 0.2-1 0.4-2.2-7.8-4.9-15.4-2 1.5-4.1 3 0.4 1 0.8 2.1c0.2 0.7 0.5 1 1 0.8q0.5-0.2 1.1-0.4 1.9 5.8 3.6 11.7c-0.6 0.7-1 1.1-1 1.1-0.3 0.5-0.3 0.9-0.2 1.6q0.2 0.7 0.4 1.4 0.1 0.4 0.2 0.8 2.9-2.1 5.6-4.1zm37.9-41.3q-0.1-0.4-0.2-0.8-0.2-0.7-0.4-1.4c-0.2-0.6-0.2-0.7-0.4-0.9-0.1 0.1-0.2 0.1-0.2 0.1q-0.2 0.1-0.3 0.3c-0.9-2.8-1.8-5.6-2.7-8.4-1.6-4.5-3-6.2-4-4.5-0.2 0.5-0.6 1.4-0.3 4.8-0.2-0.4-0.4-0.9-0.6-1.3-0.2-0.4-0.2-0.4-0.4-0.5q-0.1 0-0.2 0c-0.5 0.8-1 1.6-1.4 2.3q0.3 1.1 0.7 2.1c0.3 0.6 0.5 1 0.8 0.8q0.2-0.2 0.4-0.4 2.1 5.7 3.8 11.6-0.2 0.6-0.4 1.1c-0.1 0.5-0.1 0.8 0.1 1.5q0.2 0.8 0.4 1.5 0.1 0.4 0.2 0.8 1.4-2.1 2.6-4.1-0.1-0.3-0.2-0.7-0.2-0.7-0.5-1.5c-0.1-0.6-0.2-0.6-0.4-0.8 0 0-0.1 0-0.2 0.1q-0.2 0.1-0.4 0.3-1.5-5.1-3.2-10c-0.4-5 1-3.8 1-3.8 0.5 0.5 1 2 1.2 2.5q1.9 5.6 3.5 11.4 0.1 0.4 0.2 0.7 0.8-1.4 1.5-2.8z"/>
							<path id="&lt;Compound Path&gt;" fill-rule="evenodd" class="s2" d="m332.9 427.8q0 0 0.1-0.1c-0.8-0.1-1.5-0.1-1.5-0.1-0.6 0.2-1.1 0.9-1.6 1.3 0.2 0 0.9 0 1.4 0.1q0 0 0.1 0c0 0 0.8-0.6 1.5-1.2zm7-6.2q0.4-0.9-0.4-2-0.1 0-0.1 0.1c-0.6 0.5-0.9 0.8-1.7 1.7 0.4 0.5 0.5 0.8 0.6 1.2-3 1.7-11.5 5.4-10.7 2.5 0.1-0.4 0.3-0.7 0.4-0.9-0.2 0-0.5 0-0.7 0.1-1.1 1.5-2.4 4 1.3 3.4 0.1 0 9.1-2.1 11.3-6.1zm-36 12c-0.1-0.9-0.7-1.1-1.2-1.3-0.9-0.2-3.8-0.6-3.9-0.6-0.1 0-0.2 0.1-0.2 0.2l0.1 0.8c-3.1 3.7 1.1 3.7 1.2 3.7 0 0 4.4-0.6 4-2.8zm-1.1 0.4c-0.3 0.3-0.9 0.7-2 1-1.4 0.3-2.5 0.1-2-0.7 0.2-0.4 1-1 1-1 0 0 2.5 0 3 0.6q0 0.1 0 0.1zm50.3-20.6l1.4-1.1c-0.4-1-0.4-1.4-0.2-2.1q0 0-0.1 0l-0.2 0.2c-1.5 1.3-1.6 1.6-2 2.6-1 3.3-2 4.6-2 4.6-0.8 0.6-6.6 4-6.7 2.5 0-0.6 0.7-1.5 1-1.8-0.2 0-0.5 0.1-0.7 0.1-2.1 2.6-2.4 4-0.9 3.8 1.8-0.2 5.9-2.6 6.6-3.2 2.3-1.9 3.3-4.3 3.7-5.3 0.1-0.1 0.1-0.3 0.1-0.3zm-58.2 22.1c-0.1-0.3-1.1-2.3-2.4-4.4q-0.1 0-0.3 0l-0.1 0.2c-0.4 0.4-0.6 0.6-1 1.1 0.8 1.1 2.9 4.1 3.3 5.4q0.1 0 0.3 0c0.8-0.9 0.9-1 0.2-2.3zm23.9-6.6c0.1-0.9 0.1-2.8-0.3-5q-0.1 0-0.2 0l-0.2 0.1c-0.5 0.5-0.8 0.8-1.3 1.4 0.7 3.1 0.5 5.4 0.3 6.2q0.1 0 0.2 0c1.2-1.1 1.4-1.2 1.5-2.7zm-4.7-1.2l1.2-0.8c-1.2-0.8-1.6-1.1-1.7-1.7q-0.1 0-0.2 0l-0.1 0.1c-1.2 1-1.3 1.3-1 2.2 0.2 0.5 1.1 3.9 0.7 4.3-1.3 1.4-5.9 2.9-5.8 0.9 0.1-0.3 0.2-0.7 0.3-1-0.2 0-0.5 0-0.7 0.1-1.4 2.5-0.1 3.8 3.1 2.9 5.1-1.4 4.7-3.6 4.2-7zm35.2-11.7c0.2-0.3 0.2-0.6-0.5-0.4q-0.2 0.1-0.3 0.1-0.4 0.2-0.9 0.4 0 0 0 0c0.3-0.2 0.7-0.6 1.1-0.9 0.2-0.1 0.4-0.1 0.6-0.2 0.7-0.9 0.5-0.9 0.3-0.9-0.1 0-0.2 0.1-0.3 0.1-0.9 0.5-2.6 1.9-3 3.2 1.8-0.8 1.8-0.8 2-0.8q0 0 0 0.1c-0.2 0.3-1.7 1-2.6 1.4-0.2 0.1-0.4 0.2-0.5 0.3 1.9 0.2 3.6-1.5 4.1-2.4zm22.6-8.3q4-4.6 7.3-10.1-1.4 0.8-2.7 1.5-3.1 5.4-6.9 9.9 1.2-0.6 2.3-1.3zm20.3-13.2q5.4-5.5 9.9-11.9-1 0.8-2 1.6-4.5 6.2-9.7 11.6 0.9-0.6 1.8-1.3zm17.1-16.2l6.9-8.3q-0.7 0.8-1.6 1.7l-4.1 5 2.2-3.1q-0.9 0.8-1.8 1.7l-3.5 4.8-7.5 7.9q0.8-0.7 1.6-1.4l4.6-4.9-2.3 2.5 2.6-2.7zm-28.4 24.1q3-3.2 5.6-6.8 2.3-3.1 1.2-3c-0.4 0.1-1.1 0.6-1.5 0.8-1.2 0.9-1.9 1.5-3.2 2.9 0.2-0.4 0.5-0.9 0.7-1.3q-1.2 0.8-2.4 1.5-3.4 5.5-7.5 10.2 1.2-0.7 2.3-1.3 3-3.4 5.6-7.2c1.9-2 2.8-2.3 3.1-2.3 0 0.2 0.1 0.2-0.6 1.2q-2.6 3.5-5.4 6.6 1.1-0.6 2.1-1.3zm36.3-33l3-3.8q0-0.1 0-0.1c-0.1 0.1-0.1 0.1-0.6 0.7q-1.3 1.6-2.6 3.3c0.4-0.5 0.9-1.1 1.2-1.6q-0.6 0.7-1.3 1.4-3.7 4.9-7.8 9.4l0.5-0.5 3.5-4q1-1.1 1.9-2.3c0.7-0.8 2.8-3.5 2.2-2.5zm-207.8 75c-4.5-1.7-10.6-4.2-14.9-6.4q-1.8-0.2-3.5-0.4c3.2 1.4 7.4 3.5 10.7 4.7-4.6-1.6-10.8-3.6-15.3-5.4q-1.7-0.3-3.3-0.6c7 2.5 16.5 5.7 23.7 7.7q1.3 0.2 2.6 0.4zm35.4 0.9q-6.5-2.4-13-6.7-2 0.1-4.1 0.2 4.8 3 9.6 5.1c0.7 0.9-2.1 0.7-2.1 0.7-1.4-0.2-2.5-0.6-3.2-0.9q-4.7-2-9.2-4.7-2 0-4 0.1 4.8 2.8 9.7 4.8c6 2.3 11.9 2.2 11.5 1.1 0.5 0.1 1.1 0.3 1.5 0.5q1.7-0.1 3.3-0.2zm-57.7-6.2q-1.2-0.4-2.4-0.8c-5.1-1.8-10.2-3.9-15.3-5.7-0.5-0.1-0.6-0.1-0.7-0.2 0.2 0.4 13.4 5.1 15.8 5.9zm-6.5-2.1l-2.2-0.7-3.1-1.2q-1-0.4-1.3-0.5c0.1 0 0.1 0 6.1 2.2q0.3 0.1 0.5 0.2zm6.9 1.3l-5.1-2.2c-0.8-0.2-1.1-0.2-1.6-0.3-0.1 0-0.2 0-0.3 0 0.1 0.2 0.1 0.2 1 0.7-0.8-0.3-1.8-0.7-2.5-1.1q-1.4-0.3-2.8-0.6 9.7 4.3 20 6.9l2.4 0.7q0.7 0.1 1.4 0.3-7-1.8-13.8-4.3c-0.4-0.2-0.5-0.2-0.7-0.4 0.2-0.1 0.2-0.1 2 0.3zm29.8 5q-1-0.3-1.9-0.7c-4.6-1.9-10-3.9-14.6-4.1-0.6-0.1-2.3-0.1-1.5 0.8q0.9 1 5.2 2.7 0.2 0.1 0.4 0.2c8.1 2.8 16.4 3.8 16.7 3-0.2-0.3-0.2-0.3-4.5-1.3 0.2 0.2 0.2 0.2 0.2 0.4-0.4 0.3-3.6 0-8-1.4q3.9 0.3 8 0.4zm-6.5-1.3q-2.4-0.2-4.7-0.4c-2.1-0.9-2.1-1.2-1.9-1.3 0 0 1.5-0.4 6.2 1.5q0.2 0.1 0.4 0.2zm51.9-1.6c-0.4-0.3-0.8-0.6-1.2-0.9-4.5-3-9.3-3.1-12.5-2.6-4.9 0.8-3.9 2.9-1.6 4.5 0.1 0 0.3 0.1 0.4 0.2q0.1 0 0.1 0.1c6.8 3.8 16.7 2.7 15.9 0.1-0.2-0.6-0.9-1.2-1.1-1.4zm-4.4 0.3c1.6 1.3 1.6 1.9-0.2 2.2-4.3 0.4-8.5-2.6-7.8-3.7 0.5-0.6 4-1.6 8 1.5zm22.7-0.1q0 0-0.1 0c-0.8-0.3-1.3-0.6-2-1.3q-1.4-1.4-2.9-3.2c-2.3-2.5-6.5-2.3-9.6-1.8-3.9 0.9-5.3 2.3-3.8 3.8q2.1-0.3 4.2-0.7c-1.1-1.2 1.9-1.5 2.8-1.4q1.3 0.1 2.1 0.9 0.2 0.2 0.5 0.5-1 0.1-2 0.3-7.1 1.3-4.3 3.5c2.1 1.5 8.6 1.6 10.2-0.3 0.4 0.2 0.6 0.3 1 0.5q2-0.4 3.9-0.8zm-6.4-0.9q-0.2 0.8-2 1.1c-1.7 0.3-2.5-0.1-2.9-0.4-0.5-0.5-0.7-1.1 2.1-1.6q0.7-0.1 1.5-0.3 0.6 0.7 1.3 1.2zm125.1-51.4q1.2-1.2 2.3-2.4c-0.4 0.4-0.6 0.5-0.7 0.6 0.1-0.1 0.1-0.1 0.8-0.9q2.7-3 5.3-6.3 0.5-0.5 1.1-0.9 1-1.3 2-2.6-0.6 0.5-1.1 1 1.2-1.7 2.4-3.4-0.9 0.8-1.9 1.6-1.1 1.7-2.3 3.3-0.5 0.4-1 0.8-1 1.3-1.9 2.6 0.5-0.4 1-0.9-2.8 3.5-5.7 6.7c-1.8 2-1.8 2-2.1 2.3 0.5-0.2 1.6-1.3 1.8-1.5zm-106.5 41.3q0 0 0-0.1 0 0-0.1 0c-3.8 1-3.4 0.3-3.3 0.2 0.1-0.1 0.6-0.3 0.9-0.4 0.2 0 0.2 0 0.8 0.2q0.1 0 0.2 0c0.5-0.9-0.1-1.2-1.3-0.9-1.4 0.5-2.3 1.7-1.5 2.2 0.3 0.1 0.7 0.1 0.9 0.1-0.1 0.4-0.2 0.5-0.2 0.7q0.1 0 0.2 0.1c0.6-0.5 1.5-0.9 3.1-1.4 0.1-0.1 0.2-0.4 0.3-0.7zm112.2-50.4q0.6-1 1.3-2-2.5 2-5.3 4-0.7 1-1.3 2 2.7-2 5.3-4zm-37.7 28.1c2.9-3.3 6.9-7.8 9.6-11.3q-1.6 0.9-3.2 1.7l-6.3 7.9 0.1-4.7q-1.7 0.8-3.5 1.7c0.2 1.8 0.6 4.3 0.5 6.2q-1.5 2.3-3.1 4.3 1.4-0.7 2.7-1.3 1.7-2.1 3.2-4.5zm11.1-18.2l3.1-9.1-1.8 0.9q1.8-6.8 2.8-14.3-6.8 3.5-14.1 6.9-0.2 2.3-0.4 4.6c-0.5 3.4-1.8 9.4-5.5 11.3l-1.6 8.3q1.9-0.9 3.8-1.8l1.5-5.1q5.3-2.5 10.2-5l-1.5 5.1q1.8-0.9 3.5-1.8zm10.1 7.9q7.2-7.5 13-16.8-1.2 0.8-2.3 1.6-2 3.3-4.2 6.4c0-0.1 0-0.3-0.1-0.4-2.4 0.2-11 11.1-11.3 12.4q0.1 0 0.1 0.1c0.4-0.1 1.5-0.7 4-3.1-0.3 0.3-0.7 0.7-1 1.1q0.9-0.6 1.8-1.3zm1-1.8c-1 1-1.6 1.5-2.3 2-0.3 0.2-0.4 0.2-0.5 0.2-0.3-0.7 5.8-7.4 6.6-7.3 0.1 0.1 0 0.2-0.2 0.6q-1.7 2.3-3.6 4.5zm-157.9 50.5q-1.6-0.4-3.1-1c-1.9 0.2-2.9-0.2-3.9-0.6q-3.9-1.4-7.7-3.4 1.2 0 2.4 0-1.5-0.8-3-1.6-1.2 0-2.4 0-1.9-1.1-3.8-2.2-2 0-3.9-0.1 1.9 1.2 3.8 2.2-1 0-2 0 1.6 0.8 3.2 1.6 1 0 2 0 4.3 2.2 8.7 3.7c5.6 1.9 8.7 1.6 9.7 1.4zm-69.2-15.7q-2.5-1.2-4.9-2.4-1.9-0.8-3.7-1.6l5.6 2.7 1.1 0.5q0.9 0.4 1.9 0.8zm88.4 14.9c-5.6-2.4-11.2-6-16.7-10.8q-2.3 0.1-4.5 0.3c5.8 4.8 11.7 8.4 17.6 10.7q1.8-0.1 3.6-0.2zm-78.6-12.9l-0.8-0.6c-3.7-1.6-7.3-3.3-10.9-4.8-1.7-0.7-2.8-1.1-3.7-1.4q-0.3 0-0.7-0.1c1.3 0.7 3 1.6 4.2 2.2l0.2 0.1c1.2 0.2 1.2 0.2 11.6 4.5q0 0 0.1 0.1zm-52.3-27.1q-1.8-1.4-3.5-2.8-0.9-0.7-1.8-1.4l4.7 3.7q0.3 0.2 0.6 0.5zm5.5 3.4q-1.7-1.3-3.4-2.7-2.5-1.4-4.8-2.9 4.1 3.3 8.4 6.3l6.8 4.6q-1.3-0.8-2.6-1.7 1.3 0.9 2.7 1.6-1.7-1.2-3.4-2.4-1.5-0.8-2.8-1.7-2-1.4-4-2.9 1.5 0.9 3.1 1.8zm15.7 10.7q-1.9-1.1-3.6-2.2-1.3-0.7-2.4-1.4l4.8 2.9q0.6 0.4 1.2 0.7zm233.8-35.8q-2.7 1.4-5.5 2.7c2-3.2 2.8-6.3 3.1-8.3q0.2-1.1 0.3-2.2 2-0.9 3.9-1.9-0.7 5.1-1.8 9.7zm5.6 11.7c0.7-1.3 0.1-1.2 0-1.2-0.3 0.1-0.6 0.3-0.8 0.4-1.7 1.1-2.9 3.1-2.2 3.2 0.5 0.1 2.2-1 3-2.4zm35.8-34.4q4.5-9.6 7.5-20.4-1.8 1.5-3.7 2.9-2.2 8.1-5.2 15.6-1.4 1.1-2.9 2.2 3-7.4 5.1-15.5-2 1.5-4.1 2.9-1.9 8-4.7 15.3-1.6 1-3.1 2.1 2.6-7.2 4.5-15.1-2.2 1.5-4.4 2.9-2.2 10.2-5.8 19.2 9.3-6 16.8-12.1zm10.8-9.6q5.1-10.2 8.6-21.4-3.9 3.9-8.4 7.7-1.3 4.4-2.8 8.7c-1.8 4.7-4.8 8.9-6.7 13.6 4.7-4 7.7-11 9.6-15.9q0.7-2 1.4-4 1.1-1 2.2-2-2.9 8.3-6.7 16 1.4-1.4 2.8-2.7zm8.9-10.4q5.6-10.8 9.5-22.4-1.3 1.7-2.7 3.5l-5 11.5c-2.5 5.2-3.6 7.2-3.6 7.3 1.6-3.6 2.5-5.7 3.8-9.1q1.3-3.4 2.4-6.9-1.2 1.4-2.5 2.8-3.6 11.3-8.8 21.6 1.5-1.6 2.9-3.2c5.4-9.6 8.2-16.1 9.4-18.9q0 0 0-0.1c-0.9 2.5-1.9 4.9-4.1 9.8q-1.5 3.4-3.2 6.6 1-1.3 1.9-2.5zm-151.2 71.6c-0.8-3.5-4.8-8.8-15-6.2-10.6 3.5-6.6 11.4-2.1 13.9 6.4 3.4 18.9 0.1 17.1-7.7zm-6.5 1.1c0.5 1.4 0.8 3.8-2.2 4.6-5.3 0.9-7.4-5.1-6.1-7.2 1.5-2.4 6.7-2.4 8.3 2.6zm54.6-15.6c0.3-5-3.3-8.9-10.4-6.2-2.8 1.3-4.1 2.5-5.5 4.7q0 0-0.1 0l-0.6-2.3q-2.9 1-5.7 1.8c0.6 2.6 0.9 3.8 1.2 5.5q1.5 8.5 2.4 15.3 2.8-0.9 5.7-1.8-0.3-3.2-0.7-6.8 0.1 0 0.1 0c4.1 2.2 13.1-2.7 13.6-10.2zm-6.3 1.9c0 1.4-0.5 4-3.9 5.3-3.2 0.8-3.9-0.9-4.1-2q-0.1-1.1-0.3-2.1c-0.4-3.6 4.6-6.2 6.9-4.5 0.9 0.6 1.4 1.8 1.4 3.3zm27.5-11.1c0.2-2.2 0.2-9.3-9.8-4.9-10.5 5.6-10.4 16.3-5.3 17.5 4 0.9 10.2-2.5 13.3-4.6-0.1-0.9-0.2-2.2-0.3-3.1-1.6 1.1-9.5 6-10.5 1.9q6.3-2.4 12.3-5c0-0.2 0.2-0.9 0.3-1.8zm-12.6 3.3c0.5-4.2 5.2-6.4 6.7-4.7q0.5 0.6 0.5 1.9-3.6 1.4-7.2 2.8z"/>
							<path id="&lt;Path&gt;" fill-rule="evenodd" class="s2" d="m270 110.5c-0.7 2-0.1 4-0.2 6-2.6 1.6-2.6 1.6-2.8 1.7-1.7 0.6-2.6 1-3.6 1.4-0.6 0.3-1.4 0.7-2 0.9-1.6 0.5-2.4 0.9-3.3 1.2-2.8 1.7-3.5 3-3.9 6.7-3.8-3.8-6.7-4.9-10.2-4.2q-4.9 1.7-9.8 3.2c-5.7-3.3-8.4 4.1-12.9 5.5-6.1-5.1-8.5-1.3-12.7 4.9-2.8-3.3-2.8-3.3-11.1-4.3-3.7 0-7 1.6-10.5 1.9-4 0.8-4 0.8-6.9 1-0.9 0.1-3.5 0.6-5.7 4.6-3.8 2.7-5.7 6.7-6.5 13.4q-0.2 3.1-0.3 6.3c-40.7 5-75.1 0.6-91.2-12.8-12.3-10.3-11.9-24.1-1.3-38.8 4.7-6.1 11.1-14.2 16.1-20l4.8-5.1c-15.1 15.5-18.1 30.5-5.4 41.1 24.4 20.4 97 16.7 162.3-8q9.1-3.5 17.4-7.3c0 0.2-0.2 0.5-0.3 0.7z"/>
							<path id="&lt;Path&gt;" fill-rule="evenodd" class="s2" d="m71.5 188.2c-0.5-0.8-0.7-1-1.3-1.4q-0.3-0.2-0.6-0.3c-1.2-2-2.6-2.7-4.4-2.1l-2.4-3.7c0.6-5.3 0-10.7-3.5-8.5-0.1 0-0.2-0.1-0.2-0.2-0.2-0.2-0.4-0.3-0.5-0.5-0.4-0.3-1.3-1.2-3.4 1.5 1.1-4.9 1.3-7.2 0.8-8.8q-0.4-0.8-0.7-1.5c-0.7-1.1-1.8-0.2-3.8 3.1 0.1-2.5-0.5-2.5-0.9-2.5 0.5-2.8 0.1-5.7 0.7-8.5 0.1-0.5 0.1-1 0.2-1.4 0.1-0.5 0.2-1.1 0.3-1.6 0.2-0.4 0.2-0.6 0.3-0.8 1.5-4.2 1.5-4.2 2.3-5.9l6-12.2c-7.5 13.9-6.2 26.6 5.6 36.5q3.4 2.8 7.8 5.2v0.2l-1.9 12.1q-0.2 0.7-0.4 1.3z"/>
							<path id="&lt;Path&gt;" fill-rule="evenodd" class="s2" d="m370 412.3c-9.9 6.4-10.1 6.5-15.8 9.6l-5.2 2.8c-6.2 3.2-13 6.2-20.5 9.1-22.7 8.6-46.7 13.5-67.2 14.6h-0.2c-10.7 0.3-11.1 0.3-17.1 0.2-12.3-0.7-13.3-0.7-21-1.7l-5.1-0.7q0.7 0.1 1.4 0.2c0.3 0 0.6 0.1 0.9 0.1q2.4 0.3 4.8 0.5c3.8 0.4 4.7 0.4 5.9 0.4q1.9 0.1 4 0.1c2.5 0.2 3.4 0.2 5.1 0.1 1.1 0 1.4 0 1.8 0 1.9 0 1.9 0 6.3-0.2 1.2 0 2.2-0.1 3.2-0.2 0.6 0 1.3-0.1 1.9-0.1 1.7-0.1 2.8-0.2 3.9-0.3 0.3 0 0.6-0.1 0.9-0.1 1.5-0.2 2.5-0.3 3.5-0.4 3.7-0.1 5-0.4 6.9-0.8q2.5-0.4 5.1-0.8c2.7-0.2 3.1-0.3 6.4-1 1.8-0.3 3-0.5 4.1-0.7 0.3-0.1 0.6-0.1 0.9-0.2 3.4-0.7 6.1-1.3 8.8-1.9 2.1-0.3 3.1-0.5 4.9-1.1 0.5-0.2 0.6-0.2 0.8-0.3 10.6-1.7 11.1-1.8 19.8-5.6 1.6-0.5 2.8-1 4.1-1.4 3.7 1.6 10.1-1.9 14.4-5.3q0.5-0.2 0.9-0.3c1.3-0.4 2.7-0.8 6.1-2.5 17.6-7.7 31.6-16 41.9-24.4-10.3 8-11.6 9.1-16.6 12.3z"/>
							<path id="&lt;Path&gt;" fill-rule="evenodd" class="s2" d="m338.9 37.7c4.2 2.2 10 5.2 14.1 9.8-9-4-10.4-2.8-10-1.2 0.5 1.6 5.8 4.8 8 6.2-1-0.1-1.1 0-1.7 0.3-0.2 0.8-0.2 0.8 9.6 9.5q0 0.7-0.1 1.4c-15.4-6.9-14.3-0.3-14.3-0.2 0.3 1.4 2.4 3.4 3.1 4.1q0 0 0 0c-0.6 1.3-2.3 2-2.2 3.7 0 1.3 1.8 3.3 2.5 4.2-0.1-0.1-0.3-0.2-0.4-0.3-1.5-0.9-2.8-1.7-4-2.4-7.5-4-12.6-5.3-14.9-3.6q-1.1 1.5-2.4 3c-0.1 0.2-0.2 0.3-0.3 0.4-1.3 1.5-2.4 2.8-3.7 4.1-0.5 0.8-0.5 0.8-1 1.1-0.7 0.7-1.2 1.2-1.8 1.7-0.6 0.9-0.7 1.2-0.2 2.8-4.5-0.1-6.4 1.5-6.1 5.1-3.3 0-5.4 2.5-8.2 3.8-0.8 0.5-1.3 0.9-1.9 1.3-1.2 1-1.2 1-2.8 1.8q-0.9 0.6-1.8 1.2c-1.7 1.4-1.8 3.1-0.3 6.7-1.5 0.8-2.3 1.7-3 3.3-1.5 0-1.9 0-3 0.5q-1 0.5-1.9 1.1c-1.6 1-1.6 1-3.1 1.6-0.8 0.4-1.5 0.7-2.2 1.1-2.8-0.9-5.5-2.5-8.6-2.8 49.4-23.8 71.8-53.8 50.6-71.5-4.7-3.9-11.1-6.9-18.9-9 13 4 21.6 6.7 30.9 11.2z"/>
							<path id="&lt;Path&gt;" fill-rule="evenodd" class="s2" d="m179.1 31.8c31.5-12 66.7-13.8 78.4-3.9 11.8 9.8-4.2 27.5-35.8 39.4-31.5 12-66.7 13.8-78.4 3.9-11.8-9.8 4.2-27.5 35.8-39.4q3.5 0.1 7.6 1.9c-18 6.8-27.1 16.9-20.4 22.5 6.7 5.6 26.7 4.6 44.7-2.2 18-6.8 27.1-16.9 20.4-22.5-6.7-5.6-26.7-4.6-44.7 2.2q-4.1-1.8-7.6-1.9z"/>
							<path id="&lt;Path&gt;" fill-rule="evenodd" class="s2" d="m239.6 18.8c10.7-0.3 11.1-0.3 17.2-0.1 12.4 0.6 12.9 0.6 19.5 1.4 49.1 7.4 41.8 33.2 14.2 54.1-62.4 47.3-194.9 59.2-191.7 17.3 0.7-8.8 8.4-19.2 21.7-29.3 3.1-2.2 7.1-5.2 10.2-7.3 9.9-6.3 10.1-6.5 15.8-9.6 9.3-4.9 9.3-4.9 14.2-7.2l2.9-1.3c-36.6 16.1-54 37.6-39.2 50 16.1 13.4 64.1 11 107.2-5.4 43.1-16.3 65-40.5 48.9-53.9-9.5-7.9-30.3-10.3-54.6-7.5 4.1-0.4 9.6-1 13.7-1.2z"/>
						</g>
					</g>
				</g>
			</g>
		</g>
	</g>
</svg>