<?xml version="1.0" encoding="utf-8"?>
<!-- Generator: Adobe Illustrator 27.5.0, SVG Export Plug-In . SVG Version: 6.00 Build 0)  -->
<svg version="1.1" xmlns="http://www.w3.org/2000/svg" xmlns:xlink="http://www.w3.org/1999/xlink" x="0px" y="0px"
	 viewBox="0 0 600 600" style="enable-background:new 0 0 600 600;" xml:space="preserve">
<g id="objects">
	<g>
		<ellipse style="fill:#D8DFEA;" cx="300" cy="545.438" rx="113.062" ry="5.562"/>
		<g>
			<path style="fill:#E8A615;" d="M286.107,241.321v22.21c0,7.681,6.219,13.881,13.9,13.881c3.831,0,7.311-1.573,9.809-4.072
				s4.072-5.96,4.072-9.809v-22.21H286.107z"/>
			<path style="fill:#E8283B;" d="M411.432,57.151l0.24,128.469c0,5.181,0.169,10.113-3.798,13.463l-62.132,52.604
				c-1.496,1.257-3.176,2.265-4.975,2.948c-2.038,0.813-4.217,1.225-6.439,1.225h-68.646c-2.222,0-4.412-0.412-6.439-1.225
				c-1.799-0.683-3.469-1.691-4.964-2.948l-59.606-50.436l-2.558-2.168c-3.956-3.349-3.751-8.281-3.751-13.463V57.151
				c0-4.488,1.161-8.151,5.659-8.151h211.955C410.487,49,411.432,52.664,411.432,57.151z"/>
			<path style="fill:#F9435E;" d="M234.697,57.294h-30.366c-1.313,0-2.377,1.064-2.377,2.377v36.607c0,2.563,3.511,3.323,4.55,0.979
				c4.879-11.008,14.072-26.648,29.421-35.544C238.011,60.504,237.109,57.294,234.697,57.294z"/>
			<rect x="266.384" y="49" style="fill:#EBF2F2;" width="67.233" height="206.86"/>
			<path style="fill:#EBF2F2;" d="M194.673,49v152.251l-2.558-2.168c-3.956-3.349-6.243-8.281-6.243-13.463V57.151
				c0-4.488,3.653-8.151,8.151-8.151H194.673z"/>
			<path style="fill:#EBF2F2;" d="M405.327,49v152.251l2.558-2.168c3.956-3.349,6.243-8.281,6.243-13.463V57.151
				c0-4.488-3.653-8.151-8.151-8.151H405.327z"/>
			<rect x="276.521" y="49" style="fill:#2C3FF4;" width="46.959" height="206.86"/>
			<polygon style="fill:#F9B906;" points="440.512,361.003 349.981,337.969 300,259.361 250.019,337.969 159.499,361.003 
				159.488,361.003 219.127,432.608 213.165,525.437 300,491.098 386.835,525.437 380.873,432.608 			"/>
			<polygon style="fill:#FFC943;" points="300,401.564 213.165,525.437 219.127,432.608 			"/>
			<polygon style="fill:#E8A615;" points="300,401.564 219.127,432.608 159.488,361.003 159.499,361.003 			"/>
			<polygon style="fill:#FFC943;" points="300,259.361 300,401.564 250.019,337.969 			"/>
			<polygon style="fill:#E8A615;" points="440.512,361.003 300,401.564 349.981,337.969 			"/>
			<polygon style="fill:#E8A615;" points="386.835,525.437 300,401.564 380.873,432.608 			"/>
			<line style="fill:#F9B906;" x1="300" y1="491.109" x2="300" y2="491.098"/>
			<polygon style="fill:#E8A615;" points="300,401.564 300,491.098 213.165,525.437 			"/>
		</g>
		<path style="fill:#1A2FAA;" d="M323.483,251.02v4.836h-13.874c0,0,0,0,0.011-0.011C309.978,255.75,316.387,253.998,323.483,251.02
			z"/>
		<path style="fill:#C0CECE;" d="M333.619,245.92v9.936h-10.136v-4.836C326.904,249.584,330.483,247.874,333.619,245.92z"/>
		<path style="fill:#C11B33;" d="M405.323,49v152.246l-59.583,50.439c-1.489,1.256-3.178,2.27-4.973,2.946
			c-2.038,0.813-4.213,1.225-6.441,1.225h-0.707v-9.936c2.291-1.415,4.34-2.956,5.923-4.604
			c5.235-5.419,24.645-21.918,38.593-33.636c9.495-7.977,14.971-19.744,14.971-32.145V49H405.323z"/>
		<path style="fill:#C0CECE;" d="M414.129,57.151v128.468c0,4.846-2.017,9.45-5.501,12.766c-0.232,0.232-0.475,0.475-0.739,0.697
			l-2.566,2.165V49h0.655c0.285,0,0.56,0.011,0.834,0.042C410.919,49.465,414.129,52.949,414.129,57.151z"/>
	</g>
</g>
</svg>
